<?xml version="1.0" encoding="iso-8859-1"?>
<!-- Generator: Adobe Illustrator 19.0.0, SVG Export Plug-In . SVG Version: 6.00 Build 0)  -->
<svg xmlns="http://www.w3.org/2000/svg" xmlns:xlink="http://www.w3.org/1999/xlink" version="1.1" id="Layer_1" x="0px" y="0px" viewBox="0 0 512 512" style="enable-background:new 0 0 512 512;" xml:space="preserve">
<g>
	<g>
		<path d="M504.5,100H343V85h2.5c4.143,0,7.5-3.357,7.5-7.5s-3.357-7.5-7.5-7.5h-82V35H276c4.143,0,7.5-3.357,7.5-7.5    S280.143,20,276,20h-12.5V7.5c0-4.143-3.357-7.5-7.5-7.5s-7.5,3.357-7.5,7.5V20H236c-4.143,0-7.5,3.357-7.5,7.5s3.357,7.5,7.5,7.5    h12.5v35h-82c-4.143,0-7.5,3.357-7.5,7.5s3.357,7.5,7.5,7.5h2.5v15H7.5c-4.143,0-7.5,3.357-7.5,7.5s3.357,7.5,7.5,7.5H10v389.5    c0,4.143,3.357,7.5,7.5,7.5h477c4.143,0,7.5-3.357,7.5-7.5V115h2.5c4.143,0,7.5-3.357,7.5-7.5S508.643,100,504.5,100z M184,85h144    v258H184V85z M184,358h144v109H184V358z M25,115h144v352h-15V157c0-4.143-3.357-7.5-7.5-7.5h-24.56    C118.683,138.25,108.286,130,96,130s-22.683,8.25-25.94,19.5H47.5c-4.143,0-7.5,3.357-7.5,7.5v310H25V115z M55,417v-89h84v89H55z     M139,432v35H55v-35H139z M55,313V164.5h21.5c4.143,0,7.5-3.357,7.5-7.5c0-6.617,5.383-12,12-12s12,5.383,12,12    c0,4.143,3.357,7.5,7.5,7.5H139V313H55z M487,497H25v-15h462V497z M457,328v89h-84v-89H457z M373,313V164.5h21.5    c4.143,0,7.5-3.357,7.5-7.5c0-6.617,5.383-12,12-12s12,5.383,12,12c0,4.143,3.357,7.5,7.5,7.5H457V313H373z M457,432v35h-84v-35    H457z M487,467h-15V157c0-4.143-3.357-7.5-7.5-7.5h-24.56C436.683,138.25,426.286,130,414,130s-22.683,8.25-25.94,19.5H365.5    c-4.143,0-7.5,3.357-7.5,7.5v310h-15V115h144V467z"/>
	</g>
</g>
<g>
	<g>
		<path d="M305.5,100h-99c-4.143,0-7.5,3.357-7.5,7.5s3.357,7.5,7.5,7.5h99c4.143,0,7.5-3.357,7.5-7.5S309.643,100,305.5,100z"/>
	</g>
</g>
<g>
	<g>
		<path d="M275.166,133.324c-0.19-0.072-0.381-0.139-0.578-0.196C268.758,131.111,262.508,130,256,130s-12.758,1.111-18.588,3.129    c-0.196,0.057-0.388,0.124-0.577,0.196C214.806,141.214,199,162.292,199,187v133.5c0,4.143,3.357,7.5,7.5,7.5h99    c4.143,0,7.5-3.357,7.5-7.5V187C313,162.292,297.194,141.214,275.166,133.324z M232,313h-18V187c0-14.24,7.13-26.839,18-34.438    V313z M265,313h-18V145.981c2.901-0.636,5.91-0.981,9-0.981c3.09,0,6.099,0.345,9,0.981V313z M298,313h-18V152.562    c10.87,7.599,18,20.198,18,34.438V313z"/>
	</g>
</g>
<g>
	<g>
		<circle cx="244" cy="406" r="7.5"/>
	</g>
</g>
<g>
	<g>
		<circle cx="214" cy="436" r="7.5"/>
	</g>
</g>
<g>
</g>
<g>
</g>
<g>
</g>
<g>
</g>
<g>
</g>
<g>
</g>
<g>
</g>
<g>
</g>
<g>
</g>
<g>
</g>
<g>
</g>
<g>
</g>
<g>
</g>
<g>
</g>
<g>
</g>
</svg>
