<?xml version="1.0" encoding="iso-8859-1"?>
<!-- Generator: Adobe Illustrator 19.0.0, SVG Export Plug-In . SVG Version: 6.00 Build 0)  -->
<svg xmlns="http://www.w3.org/2000/svg" xmlns:xlink="http://www.w3.org/1999/xlink" version="1.1" id="Layer_1" x="0px" y="0px" viewBox="0 0 512 512" style="enable-background:new 0 0 512 512;" xml:space="preserve">
<g>
	<g>
		<path d="M477,200c4.142,0,7.5-3.357,7.5-7.5v-30c0-4.143-3.358-7.5-7.5-7.5h-57.5v-22.5c0-4.143-3.358-7.5-7.5-7.5    c-4.142,0-7.5,3.357-7.5,7.5V155h-56.305c-3.631-45.036-39.659-81.064-84.695-84.695V35H276c4.142,0,7.5-3.357,7.5-7.5    S280.142,20,276,20h-12.5V7.5c0-4.143-3.358-7.5-7.5-7.5c-4.142,0-7.5,3.357-7.5,7.5V20H236c-4.142,0-7.5,3.357-7.5,7.5    s3.358,7.5,7.5,7.5h12.5v35.305c-45.036,3.631-81.064,39.659-84.695,84.695H107.5v-22.5c0-4.143-3.358-7.5-7.5-7.5    c-4.142,0-7.5,3.357-7.5,7.5V155H35c-4.142,0-7.5,3.357-7.5,7.5v30c0,4.143,3.358,7.5,7.5,7.5h12.5v267H35    c-4.142,0-7.5,3.357-7.5,7.5v30c0,4.143,3.358,7.5,7.5,7.5h442c4.142,0,7.5-3.357,7.5-7.5v-30c0-4.143-3.358-7.5-7.5-7.5h-12.5    V200H477z M256,85c40.203,0,73.345,30.773,77.131,70H178.869C182.655,115.773,215.797,85,256,85z M469.5,482v15h-427v-15H469.5z     M85,392c4.142,0,7.5-3.357,7.5-7.5V230h15v207h-15v-22.5c0-4.143-3.358-7.5-7.5-7.5c-4.142,0-7.5,3.357-7.5,7.5V467h-15V200h15    v184.5C77.5,388.643,80.858,392,85,392z M92.5,215v-15h15v15H92.5z M107.5,452v15h-15v-15H107.5z M397,260    c4.142,0,7.5-3.357,7.5-7.5V230h15v207h-15V282.5c0-4.143-3.358-7.5-7.5-7.5c-4.142,0-7.5,3.357-7.5,7.5V467h-267V200h267v52.5    C389.5,256.643,392.858,260,397,260z M404.5,215v-15h15v15H404.5z M419.5,452v15h-15v-15H419.5z M434.5,467V200h15v267H434.5z     M42.5,185v-15h427v15H42.5z"/>
	</g>
</g>
<g>
	<g>
		<path d="M367,326h-33.869c-1.52-15.749-7.765-30.137-17.308-41.716l9.121-9.121c2.929-2.929,2.929-7.677,0-10.606    c-2.929-2.928-7.678-2.929-10.606,0.001l-9.12,9.121c-11.579-9.543-25.967-15.789-41.716-17.309V222.5c0-4.143-3.358-7.5-7.5-7.5    c-4.142,0-7.5,3.357-7.5,7.5v33.869c-15.749,1.52-30.137,7.766-41.716,17.309l-9.12-9.121c-2.928-2.93-7.677-2.929-10.606-0.001    c-2.929,2.93-2.929,7.678,0,10.606l9.121,9.121c-9.543,11.579-15.789,25.967-17.308,41.716H145c-4.142,0-7.5,3.357-7.5,7.5    s3.358,7.5,7.5,7.5h33.869c1.52,15.749,7.765,30.137,17.308,41.716l-9.121,9.121c-2.929,2.929-2.929,7.677,0,10.606    c1.464,1.464,3.384,2.196,5.303,2.196s3.839-0.732,5.303-2.197l9.12-9.121c11.579,9.543,25.967,15.789,41.716,17.309V444.5    c0,4.143,3.358,7.5,7.5,7.5c4.142,0,7.5-3.357,7.5-7.5v-33.869c15.749-1.52,30.137-7.766,41.716-17.309l9.12,9.121    c1.464,1.465,3.384,2.197,5.303,2.197s3.839-0.732,5.303-2.196c2.929-2.93,2.929-7.678,0-10.606l-9.121-9.121    c9.543-11.579,15.789-25.967,17.308-41.716H367c4.142,0,7.5-3.357,7.5-7.5S371.142,326,367,326z M256,396    c-34.462,0-62.5-28.037-62.5-62.5S221.538,271,256,271c34.462,0,62.5,28.037,62.5,62.5S290.462,396,256,396z"/>
	</g>
</g>
<g>
	<g>
		<path d="M256,286c-4.142,0-7.5,3.357-7.5,7.5v80c0,4.143,3.358,7.5,7.5,7.5c4.142,0,7.5-3.357,7.5-7.5v-80    C263.5,289.357,260.142,286,256,286z"/>
	</g>
</g>
<g>
</g>
<g>
</g>
<g>
</g>
<g>
</g>
<g>
</g>
<g>
</g>
<g>
</g>
<g>
</g>
<g>
</g>
<g>
</g>
<g>
</g>
<g>
</g>
<g>
</g>
<g>
</g>
<g>
</g>
</svg>
