<?xml version="1.0" encoding="iso-8859-1"?>
<!-- Generator: Adobe Illustrator 19.0.0, SVG Export Plug-In . SVG Version: 6.00 Build 0)  -->
<svg xmlns="http://www.w3.org/2000/svg" xmlns:xlink="http://www.w3.org/1999/xlink" version="1.1" id="Layer_1" x="0px" y="0px" viewBox="0 0 512 512" style="enable-background:new 0 0 512 512;" xml:space="preserve">
<g>
	<g>
		<path d="M395.999,105h-12.5V92.5c0-4.142-3.358-7.5-7.5-7.5c-4.142,0-7.5,3.357-7.5,7.5V105h-12.5c-4.142,0-7.5,3.357-7.5,7.5    c0,4.143,3.358,7.5,7.5,7.5h12.5v42.5c0,4.143,3.358,7.5,7.5,7.5c4.142,0,7.5-3.357,7.5-7.5V120h12.5c4.142,0,7.5-3.357,7.5-7.5    C403.499,108.357,400.141,105,395.999,105z"/>
	</g>
</g>
<g>
	<g>
		<circle cx="391" cy="387.001" r="7.5"/>
	</g>
</g>
<g>
	<g>
		<circle cx="361" cy="357.001" r="7.5"/>
	</g>
</g>
<g>
	<g>
		<path d="M440.754,1.7c-1.738-1.425-4.022-1.993-6.226-1.555l-150,30c-3.506,0.701-6.029,3.779-6.029,7.354v30    c0,2.247,1.007,4.376,2.745,5.8c1.739,1.426,4.024,1.996,6.226,1.555l141.029-28.206V417h-105V92.095c0-4.143-3.358-7.5-7.5-7.5    c-4.142,0-7.5,3.357-7.5,7.5V417h-105v-2.5c0-26.191-21.309-47.5-47.5-47.5h-40c-26.191,0-47.5,21.309-47.5,47.5v90    c0,4.143,3.358,7.5,7.5,7.5h60c4.142,0,7.5-3.357,7.5-7.5V482h225v22.5c0,4.143,3.358,7.5,7.5,7.5h60c4.142,0,7.5-3.357,7.5-7.5    V37.654c0.002-0.097,0.002-0.193,0-0.291V7.5C443.499,5.253,442.492,3.124,440.754,1.7z M83.499,414.5    c0-17.921,14.58-32.5,32.5-32.5h40c17.92,0,32.5,14.579,32.5,32.5v2.5h-105V414.5z M428.499,497h-45v-22.5    c0-4.143-3.358-7.5-7.5-7.5h-240c-4.142,0-7.5,3.357-7.5,7.5V497h-45v-65h345V497z M428.499,31.352l-135,27V43.649l135-27V31.352z    "/>
	</g>
</g>
<g>
</g>
<g>
</g>
<g>
</g>
<g>
</g>
<g>
</g>
<g>
</g>
<g>
</g>
<g>
</g>
<g>
</g>
<g>
</g>
<g>
</g>
<g>
</g>
<g>
</g>
<g>
</g>
<g>
</g>
</svg>
