<?xml version="1.0" encoding="iso-8859-1"?>
<!-- Generator: Adobe Illustrator 19.0.0, SVG Export Plug-In . SVG Version: 6.00 Build 0)  -->
<svg xmlns="http://www.w3.org/2000/svg" xmlns:xlink="http://www.w3.org/1999/xlink" version="1.1" id="Layer_1" x="0px" y="0px" viewBox="0 0 512.001 512.001" style="enable-background:new 0 0 512.001 512.001;" xml:space="preserve">
<g>
	<g>
		<path d="M278.513,169.606c-3.905-1.392-8.192,0.651-9.579,4.554c-1.941,5.46-7.139,9.128-12.934,9.128s-10.992-3.668-12.934-9.128    c-1.387-3.903-5.674-5.944-9.579-4.554c-3.901,1.386-5.94,5.675-4.552,9.579c4.062,11.426,14.938,19.103,27.066,19.103    s23.005-7.677,27.066-19.103C284.455,175.282,282.416,170.993,278.513,169.606z"/>
	</g>
</g>
<g>
	<g>
		<path d="M226.001,128.172h-20c-4.143,0-7.5,3.357-7.5,7.5s3.357,7.5,7.5,7.5h12.65c0.694,3.423,3.721,6,7.35,6    c4.143,0,7.5-3.357,7.5-7.5v-6C233.501,131.529,230.144,128.172,226.001,128.172z"/>
	</g>
</g>
<g>
	<g>
		<path d="M306.001,128.172h-20c-4.143,0-7.5,3.357-7.5,7.5v6c0,4.142,3.357,7.5,7.5,7.5c3.629,0,6.655-2.577,7.35-6h12.65    c4.143,0,7.5-3.357,7.5-7.5S310.144,128.172,306.001,128.172z"/>
	</g>
</g>
<g>
	<g>
		<path d="M276.001,417h-12.5v-12.5c0-4.143-3.357-7.5-7.5-7.5s-7.5,3.357-7.5,7.5V417h-12.5c-4.143,0-7.5,3.357-7.5,7.5    s3.357,7.5,7.5,7.5h12.5v42.5c0,4.143,3.357,7.5,7.5,7.5s7.5-3.357,7.5-7.5V432h12.5c4.143,0,7.5-3.357,7.5-7.5    S280.144,417,276.001,417z"/>
	</g>
</g>
<g>
	<g>
		<path d="M470.343,502.967l-20.051-96.034c-0.848-4.055-4.816-6.65-8.875-5.809c-4.055,0.847-6.655,4.82-5.809,8.875L453.773,497    h-28.272V393.302c16.241-10.635,27-28.981,27-49.802c0-20.245-10.171-38.15-25.663-48.903L387.659,106.95    C374.706,44.979,319.336,0,256.001,0S137.296,44.979,124.342,106.951L85.164,294.597C69.672,305.35,59.501,323.255,59.501,343.5    c0,11.473,3.273,22.192,8.921,31.289L41.659,502.967c-0.461,2.211,0.098,4.512,1.521,6.264c1.425,1.752,3.563,2.77,5.82,2.77h414    c2.258,0,4.396-1.018,5.82-2.77C470.245,507.479,470.804,505.178,470.343,502.967z M385.399,169.52l24.41,116.913    c-5.334-1.574-10.971-2.433-16.808-2.433h-32.5v-96.583C371.113,185.254,380.102,178.591,385.399,169.52z M139.026,110.018    C150.533,54.961,199.729,15,256.001,15c56.272,0,105.468,39.961,116.975,95.018l2.176,10.42    c-4.838-3.554-10.553-5.975-16.758-6.872c-4.651-22.783-16.742-42.888-33.61-57.668c-0.391-0.42-0.818-0.785-1.274-1.096    C305.285,39.341,281.715,30,256.001,30c-25.717,0-49.29,9.344-67.514,24.807c-0.453,0.309-0.878,0.672-1.266,1.089    c-16.87,14.78-28.96,34.886-33.612,57.669c-6.205,0.898-11.92,3.319-16.758,6.872L139.026,110.018z M307.023,61.011    C292.111,71.364,274.317,77,256.001,77c-18.316,0-36.11-5.636-51.022-15.989C219.463,50.925,237.052,45,256.001,45    C274.95,45,292.539,50.925,307.023,61.011z M151.626,129.42c-0.081,1.684-0.125,3.377-0.125,5.08c0,4.143,3.357,7.5,7.5,7.5    s7.5-3.357,7.5-7.5c0-24.847,10.181-47.359,26.586-63.591C211.151,84.539,233.23,92,256.001,92s44.85-7.461,62.914-21.091    c16.405,16.232,26.586,38.744,26.586,63.591c0,4.143,3.357,7.5,7.5,7.5s7.5-3.357,7.5-7.5c0-1.703-0.044-3.397-0.125-5.08    c8.794,3.061,15.125,11.429,15.125,21.252c0,9.777-6.271,18.114-15,21.21V164.5c0-4.143-3.357-7.5-7.5-7.5s-7.5,3.357-7.5,7.5    c0,49.351-40.149,89.5-89.5,89.5s-89.5-40.149-89.5-89.5c0-4.143-3.357-7.5-7.5-7.5s-7.5,3.357-7.5,7.5v7.382    c-8.729-3.096-15-11.433-15-21.21C136.501,140.849,142.832,132.48,151.626,129.42z M323.001,274c-4.143,0-7.5,3.357-7.5,7.5v2.5    h-119v-2.5c0-4.143-3.357-7.5-7.5-7.5s-7.5,3.357-7.5,7.5v2.5h-15v-65.608c18.316,30.305,51.581,50.608,89.5,50.608    s71.184-20.303,89.5-50.608V284h-15v-2.5C330.501,277.357,327.144,274,323.001,274z M315.501,299v2.5    c0,32.809-26.691,59.5-59.5,59.5c-32.809,0-59.5-26.691-59.5-59.5V299H315.501z M126.603,169.521    c5.298,9.071,14.286,15.734,24.898,17.896V284h-32.5c-5.837,0-11.474,0.859-16.808,2.433L126.603,169.521z M86.501,497H58.229    l22.54-107.956c1.821,1.531,3.736,2.951,5.732,4.258V497z M136.501,497h-35v-64h35V497z M136.501,418h-35v-17.63    c5.536,1.707,11.412,2.63,17.5,2.63c6,0,11.886-0.91,17.5-2.636V418z M410.501,497h-35v-64h35V497z M410.501,418h-35v-17.636    c5.614,1.726,11.5,2.636,17.5,2.636c6.088,0,11.964-0.923,17.5-2.63V418z M393.001,388c-22.939,0-42.41-17.888-44.327-40.724    c-0.347-4.128-3.967-7.185-8.101-6.847c-4.128,0.347-7.193,3.974-6.847,8.101c1.243,14.815,7.959,28.551,18.908,38.675    c2.463,2.277,5.101,4.312,7.866,6.121V497h-209V393.326c2.766-1.808,5.403-3.843,7.866-6.121    c10.949-10.124,17.665-23.859,18.908-38.675c0.347-4.127-2.719-7.754-6.847-8.101c-4.11-0.332-7.755,2.718-8.101,6.847    C161.411,370.112,141.94,388,119.001,388c-24.537,0-44.5-19.963-44.5-44.5s19.963-44.5,44.5-44.5h62.5v2.5    c0,41.079,33.421,74.5,74.5,74.5s74.5-33.421,74.5-74.5V299h62.5c24.537,0,44.5,19.963,44.5,44.5S417.538,388,393.001,388z"/>
	</g>
</g>
<g>
</g>
<g>
</g>
<g>
</g>
<g>
</g>
<g>
</g>
<g>
</g>
<g>
</g>
<g>
</g>
<g>
</g>
<g>
</g>
<g>
</g>
<g>
</g>
<g>
</g>
<g>
</g>
<g>
</g>
</svg>
