<?xml version="1.0" encoding="iso-8859-1"?>
<!-- Generator: Adobe Illustrator 19.0.0, SVG Export Plug-In . SVG Version: 6.00 Build 0)  -->
<svg xmlns="http://www.w3.org/2000/svg" xmlns:xlink="http://www.w3.org/1999/xlink" version="1.1" id="Layer_1" x="0px" y="0px" viewBox="0 0 512 512" style="enable-background:new 0 0 512 512;" xml:space="preserve">
<g>
	<g>
		<path d="M358.392,83.564c-4.651-22.783-16.742-42.889-33.611-57.668c-0.39-0.419-0.817-0.784-1.272-1.094    C305.285,9.342,281.715,0,256,0c-25.716,0-49.288,9.343-67.513,24.806c-0.454,0.309-0.879,0.673-1.268,1.09    c-16.869,14.78-28.96,34.886-33.612,57.669c-18.131,2.623-32.108,18.26-32.108,37.107c0.001,19.027,14.248,34.778,32.632,37.173    C164.765,204.266,206.402,239,256,239s91.235-34.734,101.869-81.155c18.384-2.396,32.631-18.147,32.631-37.174    C390.5,101.825,376.523,86.187,358.392,83.564z M256,15c18.949,0,36.538,5.925,51.022,16.011C292.11,41.364,274.316,47,256,47    c-18.316,0-36.11-5.636-51.022-15.989C219.462,20.925,237.051,15,256,15z M360.23,141.973c0.175-2.469,0.27-4.96,0.27-7.473    c0-4.143-3.357-7.5-7.5-7.5s-7.5,3.357-7.5,7.5c0,49.351-40.149,89.5-89.5,89.5s-89.5-40.149-89.5-89.5c0-4.143-3.357-7.5-7.5-7.5    s-7.5,3.357-7.5,7.5c0,2.513,0.095,5.004,0.27,7.473c-8.869-3.019-15.27-11.424-15.27-21.301c0-9.824,6.331-18.192,15.125-21.252    c-0.081,1.684-0.125,3.377-0.125,5.08c0,4.143,3.357,7.5,7.5,7.5s7.5-3.357,7.5-7.5c0-24.847,10.181-47.359,26.586-63.591    C211.15,54.539,233.23,62,256,62s44.85-7.461,62.914-21.091C335.319,57.141,345.5,79.653,345.5,104.5c0,4.143,3.357,7.5,7.5,7.5    s7.5-3.357,7.5-7.5c0-1.703-0.044-3.397-0.125-5.08c8.794,3.061,15.125,11.429,15.125,21.252    C375.5,130.549,369.099,138.954,360.23,141.973z"/>
	</g>
</g>
<g>
	<g>
		<path d="M278.512,139.606c-3.904-1.391-8.192,0.651-9.579,4.554c-1.941,5.46-7.139,9.128-12.934,9.128s-10.992-3.668-12.934-9.128    c-1.387-3.903-5.676-5.944-9.579-4.554c-3.901,1.386-5.94,5.675-4.552,9.579c4.062,11.426,14.938,19.103,27.066,19.103    s23.005-7.677,27.066-19.103C284.454,145.282,282.415,140.993,278.512,139.606z"/>
	</g>
</g>
<g>
	<g>
		<path d="M226,98.172h-20c-4.143,0-7.5,3.357-7.5,7.5s3.357,7.5,7.5,7.5h12.65c0.694,3.423,3.721,6,7.35,6    c4.143,0,7.5-3.357,7.5-7.5v-6C233.5,101.529,230.143,98.172,226,98.172z"/>
	</g>
</g>
<g>
	<g>
		<path d="M306,98.172h-20c-4.143,0-7.5,3.357-7.5,7.5v6c0,4.142,3.357,7.5,7.5,7.5c3.629,0,6.655-2.577,7.35-6H306    c4.143,0,7.5-3.357,7.5-7.5S310.143,98.172,306,98.172z"/>
	</g>
</g>
<g>
	<g>
		<path d="M413.265,278.679l1.667-1.535c1.546-1.424,2.424-3.432,2.419-5.534s-0.892-4.105-2.444-5.522    C399.298,251.844,379.088,244,358,244h-45c-2.87,0-5.488,1.638-6.744,4.219L303.443,254h-94.887l-2.813-5.781    C204.488,245.638,201.87,244,199,244h-45c-21.088,0-41.298,7.844-56.907,22.087c-1.553,1.417-2.439,3.421-2.444,5.522    c-0.005,2.103,0.873,4.11,2.419,5.534l1.667,1.535C86.43,292.323,79.5,310.083,79.5,328.5v176c0,4.143,3.357,7.5,7.5,7.5h338    c4.143,0,7.5-3.357,7.5-7.5v-176C432.5,310.083,425.57,292.323,413.265,278.679z M317.691,259H358    c14.58,0,28.652,4.563,40.396,12.981L268.073,392h-15.084L317.691,259z M296.146,269L256,351.523L215.854,269H296.146z M154,259    h40.309l53.351,109.667l-8.994,18.488L113.604,271.981C125.348,263.563,139.42,259,154,259z M417.5,497h-45V354.5    c0-4.143-3.357-7.5-7.5-7.5s-7.5,3.357-7.5,7.5V497h-203V354.5c0-4.143-3.357-7.5-7.5-7.5s-7.5,3.357-7.5,7.5V497h-45V328.5    c0-14.641,5.502-28.769,15.271-39.657l115.252,106.139c-0.952,1.257-1.523,2.819-1.523,4.518c0,4.143,3.357,7.5,7.5,7.5h33.851    l12,60h-41.703l7.206-36.029c0.813-4.062-1.822-8.013-5.884-8.825c-4.062-0.813-8.014,1.822-8.825,5.884l-9,45    c-0.44,2.203,0.13,4.488,1.555,6.226c1.424,1.737,3.553,2.745,5.8,2.745h60c2.247,0,4.376-1.008,5.8-2.745    c1.425-1.737,1.995-4.022,1.555-6.226L280.148,407H281c4.143,0,7.5-3.357,7.5-7.5c0-1.699-0.571-3.26-1.523-4.518l115.252-106.139    c9.769,10.888,15.271,25.016,15.271,39.657V497z"/>
	</g>
</g>
<g>
</g>
<g>
</g>
<g>
</g>
<g>
</g>
<g>
</g>
<g>
</g>
<g>
</g>
<g>
</g>
<g>
</g>
<g>
</g>
<g>
</g>
<g>
</g>
<g>
</g>
<g>
</g>
<g>
</g>
</svg>
