<?xml version="1.0" encoding="iso-8859-1"?>
<!-- Generator: Adobe Illustrator 19.0.0, SVG Export Plug-In . SVG Version: 6.00 Build 0)  -->
<svg xmlns="http://www.w3.org/2000/svg" xmlns:xlink="http://www.w3.org/1999/xlink" version="1.1" id="Layer_1" x="0px" y="0px" viewBox="0 0 512 512" style="enable-background:new 0 0 512 512;" xml:space="preserve">
<g>
	<g>
		<path d="M474.5,0h-407C46.822,0,30,16.822,30,37.5v437c0,20.678,16.822,37.5,37.5,37.5h317c4.142,0,7.5-3.357,7.5-7.5V45h15v429.5    c0,4.143,3.358,7.5,7.5,7.5h30c4.142,0,7.5-3.357,7.5-7.5v-437c0-4.143-3.358-7.5-7.5-7.5H392V15h75v482h-52.5    c-4.142,0-7.5,3.357-7.5,7.5s3.358,7.5,7.5,7.5h60c4.142,0,7.5-3.357,7.5-7.5V7.5C482,3.357,478.642,0,474.5,0z M377,497H67.5    C55.093,497,45,486.906,45,474.5v-437C45,25.094,55.093,15,67.5,15H377V497z M422,45h15v422h-15V45z"/>
	</g>
</g>
<g>
	<g>
		<path d="M272,194.5h-38.5V156c0-4.143-3.358-7.5-7.5-7.5h-30c-4.142,0-7.5,3.357-7.5,7.5v38.5H150c-4.142,0-7.5,3.357-7.5,7.5v30    c0,4.143,3.358,7.5,7.5,7.5h38.5V323c0,4.143,3.358,7.5,7.5,7.5h30c4.142,0,7.5-3.357,7.5-7.5v-83.5H272    c4.142,0,7.5-3.357,7.5-7.5v-30C279.5,197.857,276.142,194.5,272,194.5z M264.5,224.5H226c-4.142,0-7.5,3.357-7.5,7.5v83.5h-15    V232c0-4.143-3.358-7.5-7.5-7.5h-38.5v-15H196c4.142,0,7.5-3.357,7.5-7.5v-38.5h15V202c0,4.143,3.358,7.5,7.5,7.5h38.5V224.5z"/>
	</g>
</g>
<g>
	<g>
		<path d="M344.501,125c4.142,0,7.5-3.357,7.5-7.5v-30C352,83.357,348.642,80,344.5,80C326.58,80,312,65.421,312,47.5    c0-4.143-3.358-7.5-7.5-7.5h-187c-4.142,0-7.5,3.357-7.5,7.5C110,65.421,95.42,80,77.5,80c-4.142,0-7.5,3.357-7.5,7.5v337    c0,4.143,3.358,7.5,7.5,7.5c17.92,0,32.5,14.579,32.5,32.5c0,4.143,3.358,7.5,7.5,7.5h187c4.142,0,7.5-3.357,7.5-7.5    c0-17.921,14.58-32.5,32.5-32.5c4.142,0,7.5-3.357,7.5-7.5v-277c0-4.143-3.358-7.5-7.5-7.5c-4.142,0-7.5,3.357-7.5,7.5v270.092    c-20.197,3.217-36.191,19.211-39.409,39.408H124.409c-3.217-20.197-19.211-36.191-39.409-39.408V94.408    c20.197-3.217,36.191-19.211,39.409-39.408h173.183c3.217,20.197,19.211,36.191,39.409,39.408V117.5    C337.001,121.643,340.359,125,344.501,125z"/>
	</g>
</g>
<g>
	<g>
		<circle cx="165" cy="427" r="7.5"/>
	</g>
</g>
<g>
	<g>
		<circle cx="135" cy="397" r="7.5"/>
	</g>
</g>
<g>
</g>
<g>
</g>
<g>
</g>
<g>
</g>
<g>
</g>
<g>
</g>
<g>
</g>
<g>
</g>
<g>
</g>
<g>
</g>
<g>
</g>
<g>
</g>
<g>
</g>
<g>
</g>
<g>
</g>
</svg>
