<?xml version="1.0" encoding="iso-8859-1"?>
<!-- Generator: Adobe Illustrator 19.0.0, SVG Export Plug-In . SVG Version: 6.00 Build 0)  -->
<svg xmlns="http://www.w3.org/2000/svg" xmlns:xlink="http://www.w3.org/1999/xlink" version="1.1" id="Layer_1" x="0px" y="0px" viewBox="0 0 512 512" style="enable-background:new 0 0 512 512;" xml:space="preserve">
<g>
	<g>
		<circle cx="256" cy="239.5" r="7.5"/>
	</g>
</g>
<g>
	<g>
		<circle cx="286" cy="269.5" r="7.5"/>
	</g>
</g>
<g>
	<g>
		<path d="M396,227h-92.5V124.5c0-4.143-3.358-7.5-7.5-7.5h-32.5v-15.297c48.615-3.835,87-44.62,87-94.203    c0-4.143-3.358-7.5-7.5-7.5c-4.142,0-7.5,3.357-7.5,7.5c0,41.307-31.669,75.343-72,79.136V84.5c0-4.143-3.358-7.5-7.5-7.5    c-4.142,0-7.5,3.357-7.5,7.5v2.136c-40.331-3.793-72-37.829-72-79.136c0-4.143-3.358-7.5-7.5-7.5c-4.142,0-7.5,3.357-7.5,7.5    c0,49.583,38.385,90.367,87,94.203V117H216c-4.142,0-7.5,3.357-7.5,7.5V227H116c-4.142,0-7.5,3.357-7.5,7.5v70    c0,4.143,3.358,7.5,7.5,7.5h92.5v192.5c0,4.143,3.358,7.5,7.5,7.5h80c4.142,0,7.5-3.357,7.5-7.5V312H396    c4.142,0,7.5-3.357,7.5-7.5v-70C403.5,230.357,400.142,227,396,227z M388.5,297H296c-4.142,0-7.5,3.357-7.5,7.5V497h-65V304.5    c0-4.143-3.358-7.5-7.5-7.5h-92.5v-55H216c4.142,0,7.5-3.357,7.5-7.5V132h25v2.5c0,4.143,3.358,7.5,7.5,7.5    c4.142,0,7.5-3.357,7.5-7.5V132h25v102.5c0,4.143,3.358,7.5,7.5,7.5h92.5V297z"/>
	</g>
</g>
<g>
</g>
<g>
</g>
<g>
</g>
<g>
</g>
<g>
</g>
<g>
</g>
<g>
</g>
<g>
</g>
<g>
</g>
<g>
</g>
<g>
</g>
<g>
</g>
<g>
</g>
<g>
</g>
<g>
</g>
</svg>
