<?xml version="1.0" encoding="iso-8859-1"?>
<!-- Generator: Adobe Illustrator 19.0.0, SVG Export Plug-In . SVG Version: 6.00 Build 0)  -->
<svg xmlns="http://www.w3.org/2000/svg" xmlns:xlink="http://www.w3.org/1999/xlink" version="1.1" id="Layer_1" x="0px" y="0px" viewBox="0 0 512 512" style="enable-background:new 0 0 512 512;" xml:space="preserve">
<g>
	<g>
		<path d="M256,138.5c-4.143,0-7.5,3.357-7.5,7.5v10c0,4.143,3.357,7.5,7.5,7.5s7.5-3.357,7.5-7.5v-10    C263.5,141.857,260.143,138.5,256,138.5z"/>
	</g>
</g>
<g>
	<g>
		<path d="M512,97.5c0-12.253-5.907-23.152-15.023-30C506.093,60.652,512,49.753,512,37.5C512,16.822,495.178,0,474.5,0    c-27.818,0-54.253,8.802-76.445,25.452c-21.455,16.099-37.591,39.013-45.437,64.522l-38.116,123.94    C309.38,205,302.236,197.242,293.5,191.39V136c0-20.678-16.822-37.5-37.5-37.5c-20.678,0-37.5,16.822-37.5,37.5v55.39    c-8.736,5.853-15.88,13.61-21.003,22.525l-38.116-123.94c-7.846-25.51-23.981-48.424-45.437-64.522C91.753,8.802,65.318,0,37.5,0    C16.822,0,0,16.822,0,37.5c0,12.253,5.907,23.152,15.023,30C5.907,74.348,0,85.247,0,97.5s5.907,23.152,15.023,30    C5.907,134.348,0,145.247,0,157.5s5.907,23.152,15.023,30C5.907,194.348,0,205.247,0,217.5C0,238.178,16.822,255,37.5,255h62.914    c3.743,33.702,32.401,60,67.086,60h40.768l7.433,21.022l-54.057,123.446c-2.086,4.764-3.144,9.821-3.144,15.032    c0,20.678,16.822,37.5,37.5,37.5c12.253,0,23.152-5.907,30-15.023c6.848,9.116,17.747,15.023,30,15.023s23.152-5.907,30-15.023    c6.848,9.116,17.747,15.023,30,15.023c20.678,0,37.5-16.822,37.5-37.5c0-5.211-1.058-10.269-3.144-15.032l-54.057-123.445    L303.732,315H344.5c34.685,0,63.343-26.298,67.086-60H474.5c20.678,0,37.5-16.822,37.5-37.5c0-12.253-5.907-23.152-15.023-30    c9.116-6.848,15.023-17.747,15.023-30s-5.907-23.152-15.023-30C506.093,120.652,512,109.753,512,97.5z M336.616,465.486    c1.25,2.854,1.884,5.886,1.884,9.014c0,12.406-10.094,22.5-22.5,22.5s-22.5-10.094-22.5-22.5c0-4.143-3.357-7.5-7.5-7.5    s-7.5,3.357-7.5,7.5c0,12.406-10.094,22.5-22.5,22.5s-22.5-10.094-22.5-22.5c0-4.143-3.357-7.5-7.5-7.5s-7.5,3.357-7.5,7.5    c0,12.406-10.094,22.5-22.5,22.5s-22.5-10.094-22.5-22.5c0-3.128,0.634-6.16,1.884-9.015l47.971-109.546    C229.921,367.551,242.346,375,256,375s26.078-7.449,32.646-19.06L336.616,465.486z M474.5,120c-4.143,0-7.5,3.357-7.5,7.5    s3.357,7.5,7.5,7.5c12.406,0,22.5,10.094,22.5,22.5S486.906,180,474.5,180c-4.143,0-7.5,3.357-7.5,7.5s3.357,7.5,7.5,7.5    c12.406,0,22.5,10.094,22.5,22.5S486.906,240,474.5,240h-70c-4.143,0-7.5,3.357-7.5,7.5c0,28.948-23.552,52.5-52.5,52.5h-46.07    c-3.179,0-6.012,2.003-7.071,5l-14.145,40.004C274.041,353.974,265.516,360,256,360s-18.041-6.026-21.213-14.995L220.642,305    c-1.06-2.997-3.893-5-7.071-5H167.5c-28.948,0-52.5-23.552-52.5-52.5c0-4.143-3.357-7.5-7.5-7.5h-70    C25.094,240,15,229.906,15,217.5S25.094,195,37.5,195c4.143,0,7.5-3.357,7.5-7.5s-3.357-7.5-7.5-7.5    C25.094,180,15,169.906,15,157.5S25.094,135,37.5,135c4.143,0,7.5-3.357,7.5-7.5s-3.357-7.5-7.5-7.5    C25.094,120,15,109.906,15,97.5S25.094,75,37.5,75c4.143,0,7.5-3.357,7.5-7.5S41.643,60,37.5,60C25.094,60,15,49.906,15,37.5    S25.094,15,37.5,15c49.723,0,92.941,31.902,107.544,79.384l44.15,143.562c-0.454,3.142-0.694,6.333-0.694,9.554    c0,7.696,1.299,15.27,3.861,22.512c1.382,3.905,5.666,5.951,9.571,4.569c3.905-1.381,5.951-5.667,4.569-9.571    c-1.992-5.632-3.002-11.522-3.002-17.51c0-18.669,10.061-36.089,26.257-45.462c2.316-1.341,3.743-3.814,3.743-6.491V136    c0-12.406,10.094-22.5,22.5-22.5s22.5,10.094,22.5,22.5v59.547c0,2.677,1.427,5.15,3.743,6.491    c16.196,9.373,26.257,26.793,26.257,45.462c0,5.987-1.01,11.878-3.002,17.51c-1.382,3.904,0.664,8.19,4.569,9.571    c0.827,0.293,1.671,0.432,2.501,0.432c3.089,0,5.981-1.923,7.07-5.001c2.563-7.242,3.861-14.815,3.861-22.512    c0-3.221-0.24-6.412-0.694-9.554l44.15-143.561C381.559,46.902,424.777,15,474.5,15c12.406,0,22.5,10.094,22.5,22.5    S486.906,60,474.5,60c-4.143,0-7.5,3.357-7.5,7.5s3.357,7.5,7.5,7.5c12.406,0,22.5,10.094,22.5,22.5S486.906,120,474.5,120z"/>
	</g>
</g>
<g>
	<g>
		<path d="M256,38.5c-21.379,0-37.5,9.673-37.5,22.5c0,12.827,16.121,22.5,37.5,22.5c21.379,0,37.5-9.673,37.5-22.5    C293.5,48.173,277.379,38.5,256,38.5z M256,68.5c-14.521,0-22.5-5.633-22.5-7.5s7.979-7.5,22.5-7.5s22.5,5.633,22.5,7.5    S270.521,68.5,256,68.5z"/>
	</g>
</g>
<g>
	<g>
		<circle cx="75" cy="187.5" r="7.5"/>
	</g>
</g>
<g>
	<g>
		<circle cx="105" cy="157.5" r="7.5"/>
	</g>
</g>
<g>
	<g>
		<circle cx="437" cy="97.5" r="7.5"/>
	</g>
</g>
<g>
	<g>
		<circle cx="367" cy="217.5" r="7.5"/>
	</g>
</g>
<g>
	<g>
		<circle cx="397" cy="187.5" r="7.5"/>
	</g>
</g>
<g>
</g>
<g>
</g>
<g>
</g>
<g>
</g>
<g>
</g>
<g>
</g>
<g>
</g>
<g>
</g>
<g>
</g>
<g>
</g>
<g>
</g>
<g>
</g>
<g>
</g>
<g>
</g>
<g>
</g>
</svg>
