<?xml version="1.0" encoding="iso-8859-1"?>
<!-- Generator: Adobe Illustrator 19.0.0, SVG Export Plug-In . SVG Version: 6.00 Build 0)  -->
<svg xmlns="http://www.w3.org/2000/svg" xmlns:xlink="http://www.w3.org/1999/xlink" version="1.1" id="Layer_1" x="0px" y="0px" viewBox="0 0 512 512" style="enable-background:new 0 0 512 512;" xml:space="preserve">
<g>
	<g>
		<path d="M504.5,457H462V309.5c0-20.678-16.822-37.5-37.5-37.5H412v-46.29c2.347,0.833,4.871,1.29,7.5,1.29    c12.406,0,22.5-10.094,22.5-22.5S431.906,182,419.5,182c-2.629,0-5.153,0.458-7.5,1.29V159.5c0-20.678-16.822-37.5-37.5-37.5h-96    V81h21v2.5c0,4.143,3.357,7.5,7.5,7.5s7.5-3.357,7.5-7.5v-50c0-4.143-3.357-7.5-7.5-7.5s-7.5,3.357-7.5,7.5V36h-21V15h2.5    c4.143,0,7.5-3.357,7.5-7.5S285.143,0,281,0h-50c-4.142,0-7.5,3.357-7.5,7.5s3.358,7.5,7.5,7.5h2.5v21h-21v-2.5    c0-4.143-3.358-7.5-7.5-7.5c-4.142,0-7.5,3.357-7.5,7.5v50c0,4.143,3.358,7.5,7.5,7.5c4.142,0,7.5-3.357,7.5-7.5V81h21v41h-96    c-20.678,0-37.5,16.822-37.5,37.5v23.79c-2.347-0.833-4.871-1.29-7.5-1.29C80.093,182,70,192.094,70,204.5S80.093,227,92.5,227    c2.629,0,5.153-0.458,7.5-1.29V272H87.5C66.822,272,50,288.822,50,309.5V457H7.5c-4.142,0-7.5,3.357-7.5,7.5s3.358,7.5,7.5,7.5    h23.098c3.607,22.64,23.263,40,46.902,40h357c23.639,0,43.295-17.36,46.902-40H504.5c4.143,0,7.5-3.357,7.5-7.5    S508.643,457,504.5,457z M419.5,197c4.136,0,7.5,3.364,7.5,7.5s-3.364,7.5-7.5,7.5s-7.5-3.364-7.5-7.5S415.364,197,419.5,197z     M212.5,66V51H241c4.142,0,7.5-3.357,7.5-7.5V15h15v28.5c0,4.143,3.357,7.5,7.5,7.5h28.5v15H271c-4.143,0-7.5,3.357-7.5,7.5V122    h-15V73.5c0-4.143-3.358-7.5-7.5-7.5H212.5z M92.5,212c-4.136,0-7.5-3.364-7.5-7.5s3.364-7.5,7.5-7.5s7.5,3.364,7.5,7.5    S96.636,212,92.5,212z M64.998,309.5C65,297.094,75.093,287,87.5,287h55.4c4.142,0,7.5-3.357,7.5-7.5s-3.358-7.5-7.5-7.5H115    V159.5c0-12.406,10.093-22.5,22.5-22.5h237c12.406,0,22.5,10.094,22.5,22.5V272H172.9c-4.142,0-7.5,3.357-7.5,7.5    s3.358,7.5,7.5,7.5h251.6c12.406,0,22.5,10.094,22.5,22.5v70.095c-10.036,1.425-16.106,5.62-21.579,9.406    c-5.855,4.05-10.48,7.249-20.546,7.249s-14.69-3.199-20.546-7.249c-6.718-4.646-14.332-9.912-29.079-9.912    s-22.361,5.266-29.079,9.912c-5.855,4.05-10.48,7.249-20.546,7.249s-14.69-3.199-20.546-7.249    c-6.718-4.646-14.332-9.912-29.079-9.912s-22.361,5.266-29.079,9.912c-5.856,4.05-10.481,7.249-20.547,7.249    c-10.065,0-14.69-3.199-20.546-7.249c-6.717-4.646-14.332-9.912-29.079-9.912s-22.361,5.266-29.079,9.912    c-5.856,4.05-10.481,7.249-20.547,7.249c-10.065,0-14.69-3.199-20.546-7.249c-5.473-3.786-11.543-7.98-21.579-9.406V309.5z     M446.998,394.838V457H65v-62.162c5.325,1.174,8.879,3.618,13.046,6.5c6.717,4.646,14.331,9.912,29.078,9.912    c14.748,0,22.361-5.266,29.079-9.912c5.856-4.05,10.481-7.249,20.546-7.249s14.69,3.199,20.546,7.249    c6.717,4.646,14.331,9.912,29.078,9.912c14.748,0,22.361-5.266,29.079-9.912c5.856-4.05,10.481-7.249,20.546-7.249    s14.69,3.199,20.546,7.249c6.718,4.646,14.332,9.912,29.079,9.912s22.361-5.266,29.079-9.912c5.855-4.05,10.48-7.249,20.546-7.249    s14.69,3.199,20.546,7.249c6.718,4.646,14.332,9.912,29.079,9.912s22.361-5.266,29.079-9.912    C438.119,398.456,441.673,396.012,446.998,394.838z M434.5,497h-357c-15.339,0-28.221-10.685-31.617-25h420.234    C462.721,486.315,449.839,497,434.5,497z"/>
	</g>
</g>
<g>
	<g>
		<path d="M157.9,182c-12.407,0-22.5,10.094-22.5,22.5s10.093,22.5,22.5,22.5c12.407,0,22.5-10.094,22.5-22.5S170.307,182,157.9,182    z M157.9,212c-4.136,0-7.5-3.364-7.5-7.5s3.364-7.5,7.5-7.5c4.136,0,7.5,3.364,7.5,7.5S162.036,212,157.9,212z"/>
	</g>
</g>
<g>
	<g>
		<path d="M223.3,182c-12.407,0-22.5,10.094-22.5,22.5s10.093,22.5,22.5,22.5c12.407,0,22.5-10.094,22.5-22.5S235.707,182,223.3,182    z M223.3,212c-4.136,0-7.5-3.364-7.5-7.5s3.364-7.5,7.5-7.5c4.136,0,7.5,3.364,7.5,7.5S227.436,212,223.3,212z"/>
	</g>
</g>
<g>
	<g>
		<path d="M288.7,182c-12.406,0-22.5,10.094-22.5,22.5s10.094,22.5,22.5,22.5s22.5-10.094,22.5-22.5S301.106,182,288.7,182z     M288.7,212c-4.136,0-7.5-3.364-7.5-7.5s3.364-7.5,7.5-7.5s7.5,3.364,7.5,7.5S292.836,212,288.7,212z"/>
	</g>
</g>
<g>
	<g>
		<path d="M354.1,182c-12.406,0-22.5,10.094-22.5,22.5s10.093,22.5,22.5,22.5c12.406,0,22.5-10.094,22.5-22.5S366.506,182,354.1,182    z M354.1,212c-4.136,0-7.5-3.364-7.5-7.5s3.364-7.5,7.5-7.5c4.136,0,7.5,3.364,7.5,7.5S358.236,212,354.1,212z"/>
	</g>
</g>
<g>
	<g>
		<circle cx="404.87" cy="363.75" r="7.5"/>
	</g>
</g>
<g>
	<g>
		<circle cx="374.87" cy="333.75" r="7.5"/>
	</g>
</g>
<g>
	<g>
		<circle cx="107.5" cy="319.5" r="7.5"/>
	</g>
</g>
<g>
</g>
<g>
</g>
<g>
</g>
<g>
</g>
<g>
</g>
<g>
</g>
<g>
</g>
<g>
</g>
<g>
</g>
<g>
</g>
<g>
</g>
<g>
</g>
<g>
</g>
<g>
</g>
<g>
</g>
</svg>
