<?xml version="1.0" encoding="iso-8859-1"?>
<!-- Generator: Adobe Illustrator 19.0.0, SVG Export Plug-In . SVG Version: 6.00 Build 0)  -->
<svg xmlns="http://www.w3.org/2000/svg" xmlns:xlink="http://www.w3.org/1999/xlink" version="1.1" id="Layer_1" x="0px" y="0px" viewBox="0 0 512 512" style="enable-background:new 0 0 512 512;" xml:space="preserve">
<g>
	<g>
		<path d="M474.5,103.5h-88.208l-5.644-16.105c-3.868-11.038-14.595-20.1-26.192-22.953V56c0-4.143-3.358-7.5-7.5-7.5    c-4.142,0-7.5,3.357-7.5,7.5v7.5h-76.911V56c0-4.143-3.358-7.5-7.5-7.5c-4.142,0-7.5,3.357-7.5,7.5v8.442    c-11.598,2.852-22.324,11.914-26.192,22.953l-5.644,16.105H165V81c0-4.143-3.358-7.5-7.5-7.5h-90c-4.142,0-7.5,3.357-7.5,7.5    v22.927C26.298,107.671,0,136.316,0,171v225c0,37.22,30.28,67.5,67.5,67.5h407c20.678,0,37.5-16.822,37.5-37.5V141    C512,120.322,495.178,103.5,474.5,103.5z M235.508,92.355c2.586-7.381,11.715-13.855,19.536-13.855h91.911    c7.821,0,16.95,6.475,19.536,13.855l33.845,96.582C374.65,163.93,339.596,148.5,301,148.5c-38.595,0-73.649,15.43-99.336,40.437    L235.508,92.355z M428.5,291c0,70.304-57.196,127.5-127.5,127.5S173.5,361.304,173.5,291c0-14.77,2.533-28.957,7.173-42.161    c0.001-0.003,0.023-0.064,0.023-0.064C198.16,199.162,245.49,163.5,301,163.5C371.304,163.5,428.5,220.696,428.5,291z M75,88.5h75    v15H75V88.5z M67.5,118.5c28.949,0,52.5,23.552,52.5,52.5s-23.551,52.5-52.5,52.5S15,199.948,15,171S38.551,118.5,67.5,118.5z     M497,426c0,12.406-10.093,22.5-22.5,22.5H109.861C125.18,436.116,135,417.187,135,396c0-4.143-3.358-7.5-7.5-7.5    c-4.142,0-7.5,3.357-7.5,7.5c0,28.948-23.551,52.5-52.5,52.5S15,424.948,15,396V213.361C27.384,228.68,46.313,238.5,67.5,238.5    s40.116-9.82,52.5-25.139V366c0,4.143,3.358,7.5,7.5,7.5c4.142,0,7.5-3.357,7.5-7.5V171c0-21.187-9.82-40.116-25.139-52.5h100.591    l-43.934,125.375c-5.187,14.761-8.018,30.617-8.018,47.125c0,78.575,63.925,142.5,142.5,142.5c65.6,0,120.979-44.561,137.483-105    h6.017c20.678,0,37.5-16.822,37.5-37.5c0-20.678-16.822-37.5-37.5-37.5h-6.017c-0.888-3.252-1.888-6.457-2.997-9.613    c-0.004-0.012-43.938-125.387-43.938-125.387H474.5c12.407,0,22.5,10.094,22.5,22.5V426z M441.718,268.5h2.782    c12.407,0,22.5,10.094,22.5,22.5s-10.093,22.5-22.5,22.5h-2.782c1.168-7.331,1.782-14.845,1.782-22.5    C443.5,283.345,442.885,275.831,441.718,268.5z"/>
	</g>
</g>
<g>
	<g>
		<path d="M350.972,103.5h-99.945c-4.142,0-7.5,3.357-7.5,7.5s3.358,7.5,7.5,7.5h99.945c4.142,0,7.5-3.357,7.5-7.5    S355.114,103.5,350.972,103.5z"/>
	</g>
</g>
<g>
	<g>
		<path d="M67.5,133.501c-20.678,0-37.5,16.822-37.5,37.5c0,20.678,16.822,37.5,37.5,37.5s37.5-16.822,37.5-37.5    C105,150.323,88.178,133.501,67.5,133.501z M67.5,193.501c-12.407,0-22.5-10.094-22.5-22.5c0-12.406,10.093-22.5,22.5-22.5    s22.5,10.094,22.5,22.5S79.907,193.501,67.5,193.501z"/>
	</g>
</g>
<g>
	<g>
		<path d="M97.5,253.5h-60c-4.142,0-7.5,3.357-7.5,7.5s3.358,7.5,7.5,7.5h60c4.142,0,7.5-3.357,7.5-7.5S101.642,253.5,97.5,253.5z"/>
	</g>
</g>
<g>
	<g>
		<path d="M301,178.502c-62.033,0-112.5,50.467-112.5,112.5c0,24.477,7.758,47.765,22.436,67.347    c2.485,3.313,7.185,3.988,10.5,1.502c3.314-2.484,3.988-7.185,1.503-10.499c-12.717-16.966-19.439-37.144-19.439-58.351    c0-53.762,43.738-97.5,97.5-97.5c53.762,0,97.5,43.738,97.5,97.5c0,53.762-43.738,97.5-97.5,97.5    c-21.207,0-41.384-6.722-58.351-19.439c-3.315-2.485-8.015-1.813-10.5,1.503c-2.484,3.314-1.811,8.015,1.503,10.499    c19.583,14.679,42.871,22.438,67.348,22.438c62.033,0,112.5-50.467,112.5-112.5S363.033,178.502,301,178.502z"/>
	</g>
</g>
<g>
	<g>
		<path d="M301,313.501c-4.142,0-7.5,3.357-7.5,7.5v18.5c0,4.143,3.358,7.5,7.5,7.5c4.142,0,7.5-3.357,7.5-7.5v-18.5    C308.5,316.858,305.142,313.501,301,313.501z"/>
	</g>
</g>
<g>
	<g>
		<path d="M349.5,283.501h-41v-41c0-4.143-3.358-7.5-7.5-7.5c-4.142,0-7.5,3.357-7.5,7.5v41h-41c-4.142,0-7.5,3.357-7.5,7.5    s3.358,7.5,7.5,7.5h97c4.142,0,7.5-3.357,7.5-7.5S353.642,283.501,349.5,283.501z"/>
	</g>
</g>
<g>
</g>
<g>
</g>
<g>
</g>
<g>
</g>
<g>
</g>
<g>
</g>
<g>
</g>
<g>
</g>
<g>
</g>
<g>
</g>
<g>
</g>
<g>
</g>
<g>
</g>
<g>
</g>
<g>
</g>
</svg>
