<?xml version="1.0" encoding="iso-8859-1"?>
<!-- Generator: Adobe Illustrator 19.0.0, SVG Export Plug-In . SVG Version: 6.00 Build 0)  -->
<svg xmlns="http://www.w3.org/2000/svg" xmlns:xlink="http://www.w3.org/1999/xlink" version="1.1" id="Layer_1" x="0px" y="0px" viewBox="0 0 512 512" style="enable-background:new 0 0 512 512;" xml:space="preserve">
<g>
	<g>
		<path d="M371,213.001h-53.379c-2.354-5.255-5.358-10.155-8.915-14.599l26.844-26.844c2.929-2.929,2.929-7.678,0-10.606    c-2.93-2.929-7.678-2.929-10.607,0L298.1,187.796c-4.444-3.557-9.344-6.56-14.599-8.915V125.5c0-4.142-3.357-7.5-7.5-7.5h-40    c-4.143,0-7.5,3.358-7.5,7.5v53.379c-5.255,2.355-10.156,5.358-14.599,8.915l-26.843-26.844c-2.929-2.929-7.677-2.93-10.607,0    c-2.929,2.929-2.929,7.678,0,10.606l26.844,26.844c-3.557,4.444-6.56,9.344-8.915,14.599H141V213c-4.143,0-7.5,3.358-7.5,7.5v40    c0,4.142,3.357,7.5,7.5,7.5h53.379c2.354,5.255,5.358,10.155,8.915,14.599l-26.844,26.844c-2.929,2.929-2.929,7.678,0,10.606    c1.465,1.464,3.385,2.197,5.304,2.197s3.839-0.732,5.304-2.197l26.843-26.844c4.444,3.557,9.344,6.56,14.599,8.915V444.5    c0,4.142,3.357,7.5,7.5,7.5h40c4.143,0,7.5-3.358,7.5-7.5V302.121c5.255-2.355,10.156-5.358,14.599-8.915l26.843,26.844    c1.465,1.465,3.384,2.197,5.304,2.197c1.919,0,3.839-0.732,5.304-2.197c2.929-2.929,2.929-7.678,0-10.606L308.706,282.6    c3.557-4.444,6.56-9.344,8.915-14.599H371c4.143,0,7.5-3.358,7.5-7.5v-40C378.5,216.359,375.143,213.001,371,213.001z     M189.679,253H148.5v-25h41.179c-0.762,4.054-1.179,8.228-1.179,12.5C188.5,244.772,188.917,248.946,189.679,253z M243.5,133h25    v41.179c-4.054-0.763-8.228-1.179-12.5-1.179c-4.272,0-8.446,0.417-12.5,1.179V133z M268.5,437h-25V306.821    c4.054,0.763,8.228,1.179,12.5,1.179c4.272,0,8.446-0.417,12.5-1.179V437z M256,293c-28.948,0-52.5-23.551-52.5-52.5    c0-28.949,23.552-52.5,52.5-52.5s52.5,23.551,52.5,52.5C308.5,269.449,284.948,293,256,293z M363.5,253h-41.179    c0.762-4.054,1.179-8.228,1.179-12.5c0-4.272-0.417-8.446-1.179-12.5H363.5V253z"/>
	</g>
</g>
<g>
	<g>
		<path d="M431,58H156.743L363.5,16.649V37.5c0,4.142,3.357,7.5,7.5,7.5s7.5-3.358,7.5-7.5v-30c0-2.247-1.008-4.375-2.745-5.8    c-1.738-1.424-4.022-1.995-6.226-1.554l-290,58C76.092,58.83,73.5,61.862,73.5,65.5v439c0,4.142,3.357,7.5,7.5,7.5h350    c4.143,0,7.5-3.358,7.5-7.5v-439C438.5,61.358,435.143,58,431,58z M423.5,497h-335V73h335V497z"/>
	</g>
</g>
<g>
	<g>
		<path d="M401,88H111c-4.143,0-7.5,3.358-7.5,7.5v319c0,4.142,3.357,7.5,7.5,7.5s7.5-3.358,7.5-7.5V103h275v364h-275v-22.5    c0-4.142-3.357-7.5-7.5-7.5s-7.5,3.358-7.5,7.5v30c0,4.142,3.358,7.5,7.5,7.5h290c4.143,0,7.5-3.358,7.5-7.5v-379    C408.5,91.358,405.143,88,401,88z"/>
	</g>
</g>
<g>
</g>
<g>
</g>
<g>
</g>
<g>
</g>
<g>
</g>
<g>
</g>
<g>
</g>
<g>
</g>
<g>
</g>
<g>
</g>
<g>
</g>
<g>
</g>
<g>
</g>
<g>
</g>
<g>
</g>
</svg>
