<?xml version="1.0" encoding="iso-8859-1"?>
<!-- Generator: Adobe Illustrator 19.0.0, SVG Export Plug-In . SVG Version: 6.00 Build 0)  -->
<svg xmlns="http://www.w3.org/2000/svg" xmlns:xlink="http://www.w3.org/1999/xlink" version="1.1" id="Layer_1" x="0px" y="0px" viewBox="0 0 512 512" style="enable-background:new 0 0 512 512;" xml:space="preserve">
<g>
	<g>
		<path d="M476,0c-4.143,0-7.5,3.358-7.5,7.5V10h-425V7.5C43.5,3.358,40.143,0,36,0s-7.5,3.358-7.5,7.5v50    c0,4.142,3.357,7.5,7.5,7.5s7.5-3.358,7.5-7.5V55h15v359.5c0,2.898,1.67,5.537,4.289,6.778l190,90    c1.017,0.481,2.113,0.722,3.211,0.722c1.098,0,2.194-0.241,3.211-0.722l190-90c2.619-1.241,4.289-3.879,4.289-6.778V55h15v2.5    c0,4.142,3.357,7.5,7.5,7.5s7.5-3.358,7.5-7.5v-50C483.5,3.358,480.143,0,476,0z M58.5,40h-15V25h15V40z M307.2,25h43.9v15h-43.9    V25z M160.9,25h43.9v15h-43.9V25z M438.5,409.754L256,496.201L73.5,409.754V25h72.4l-0.001,22.5c0,1.989,0.79,3.896,2.196,5.303    C149.503,54.21,151.41,55,153.399,55h58.9c4.143,0,7.5-3.358,7.5-7.5V25h72.4v22.5c0,4.142,3.357,7.5,7.5,7.5H358.6    c4.143,0,7.5-3.358,7.5-7.5V25h72.4V409.754z M468.5,40h-15V25h15V40z"/>
	</g>
</g>
<g>
	<g>
		<path d="M269.699,40H242.3c-4.143,0-7.5,3.358-7.5,7.5c0,4.142,3.357,7.5,7.5,7.5h27.399c4.143,0,7.5-3.358,7.5-7.5    C277.199,43.358,273.842,40,269.699,40z"/>
	</g>
</g>
<g>
	<g>
		<path d="M416,40h-27.4c-4.143,0-7.5,3.358-7.5,7.5c0,4.142,3.357,7.5,7.5,7.5h19.9v336.257L256,462.622l-152.5-71.364V55h19.899    c4.143,0,7.5-3.358,7.5-7.5c0-4.142-3.357-7.5-7.5-7.5H96c-4.143,0-7.5,3.358-7.5,7.5v348.528c0,2.911,1.685,5.559,4.321,6.793    l160,74.874c1.007,0.471,2.093,0.707,3.179,0.707s2.172-0.236,3.179-0.707l160-74.874c2.637-1.234,4.321-3.882,4.321-6.793V47.5    C423.5,43.358,420.143,40,416,40z"/>
	</g>
</g>
<g>
	<g>
		<path d="M371,180.001h-53.379c-2.354-5.255-5.358-10.155-8.915-14.599l26.844-26.844c2.929-2.929,2.929-7.678,0-10.606    c-2.93-2.929-7.678-2.929-10.607,0L298.1,154.796c-4.444-3.557-9.344-6.56-14.599-8.915V92.5c0-4.142-3.357-7.5-7.5-7.5h-40    c-4.143,0-7.5,3.358-7.5,7.5v53.379c-5.255,2.355-10.156,5.358-14.599,8.915l-26.843-26.844c-2.929-2.929-7.677-2.929-10.607,0    c-2.929,2.929-2.929,7.678,0,10.606l26.844,26.844c-3.557,4.444-6.56,9.344-8.915,14.599H141c-4.143,0-7.5,3.358-7.5,7.5v40    c0,4.143,3.357,7.501,7.5,7.501h53.379c2.354,5.255,5.358,10.155,8.915,14.599l-26.844,26.844c-2.929,2.929-2.929,7.678,0,10.606    c1.465,1.464,3.385,2.197,5.304,2.197s3.839-0.732,5.304-2.197l26.843-26.844c4.444,3.557,9.344,6.56,14.599,8.915V411.5    c0,4.142,3.357,7.5,7.5,7.5h40c4.143,0,7.5-3.358,7.5-7.5V269.121c5.255-2.355,10.156-5.358,14.599-8.915l26.843,26.844    c1.465,1.465,3.384,2.197,5.304,2.197c1.919,0,3.839-0.732,5.304-2.197c2.929-2.929,2.929-7.678,0-10.606L308.706,249.6    c3.557-4.444,6.56-9.344,8.915-14.599H371c4.143,0,7.5-3.358,7.5-7.5v-40C378.5,183.359,375.143,180.001,371,180.001z     M189.679,220H148.5v-25h41.179c-0.762,4.054-1.179,8.228-1.179,12.5C188.5,211.772,188.917,215.946,189.679,220z M243.5,100h25    v41.179c-4.054-0.763-8.228-1.179-12.5-1.179c-4.272,0-8.446,0.417-12.5,1.179V100z M268.5,404h-25V273.821    c4.054,0.763,8.228,1.179,12.5,1.179c4.272,0,8.446-0.417,12.5-1.179V404z M256,260c-28.948,0-52.5-23.551-52.5-52.5    c0-28.949,23.552-52.5,52.5-52.5s52.5,23.551,52.5,52.5C308.5,236.449,284.948,260,256,260z M363.5,220h-41.179    c0.762-4.054,1.179-8.228,1.179-12.5c0-4.272-0.417-8.446-1.179-12.5H363.5V220z"/>
	</g>
</g>
<g>
</g>
<g>
</g>
<g>
</g>
<g>
</g>
<g>
</g>
<g>
</g>
<g>
</g>
<g>
</g>
<g>
</g>
<g>
</g>
<g>
</g>
<g>
</g>
<g>
</g>
<g>
</g>
<g>
</g>
</svg>
