<?xml version="1.0" encoding="iso-8859-1"?>
<!-- Generator: Adobe Illustrator 19.0.0, SVG Export Plug-In . SVG Version: 6.00 Build 0)  -->
<svg xmlns="http://www.w3.org/2000/svg" xmlns:xlink="http://www.w3.org/1999/xlink" version="1.1" id="Layer_1" x="0px" y="0px" viewBox="0 0 512 512" style="enable-background:new 0 0 512 512;" xml:space="preserve">
<g>
	<g>
		<path d="M476.261,457.832L431.05,125h1.412c4.143,0,7.5-3.358,7.5-7.5v-80c0-4.142-3.357-7.5-7.5-7.5h-2.5V7.5    c0-4.142-3.357-7.5-7.5-7.5h-337c-4.142,0-7.5,3.358-7.5,7.5V30h-2.5c-4.142,0-7.5,3.358-7.5,7.5v80c0,4.142,3.358,7.5,7.5,7.5    h1.412L35.739,427.833c-0.448,3.298,1.332,6.498,4.371,7.856c10.647,4.761,21.569,9.189,32.535,13.247l-2.7,24.423    c-0.382,3.458,1.664,6.725,4.941,7.891C132.264,501.654,192.513,512,253.962,512c75.871,0,149.192-15.582,217.929-46.312    C474.929,464.33,476.709,461.131,476.261,457.832z M424.962,45v65H319.779c0.832-2.347,1.289-4.87,1.289-7.498v-50    c0-2.63-0.458-5.154-1.291-7.502H424.962z M318.962,139.614h-130c-12.407,0-22.5,10.093-22.5,22.5v7.227    c-14.917-5.396-44.633-18.65-66.172-44.341h108.982c0.026,0,0.051,0.002,0.077,0.002c0.013,0,0.026-0.002,0.039-0.002h89.142    c0.013,0,0.026,0.002,0.039,0.002c0.026,0,0.051-0.002,0.077-0.002h108.983c-21.501,25.609-51.241,38.901-66.166,44.324v-7.21    C341.462,149.708,331.368,139.614,318.962,139.614z M253.962,228.729l-72.5-36.25v-30.365c0-4.136,3.364-7.5,7.5-7.5h130    c4.136,0,7.5,3.364,7.5,7.5v30.365L253.962,228.729z M326.462,209.249v17.865c0,39.977-32.523,72.5-72.5,72.5    s-72.5-32.523-72.5-72.5v-17.865l69.146,34.573c1.056,0.528,2.205,0.792,3.354,0.792c1.149,0,2.299-0.264,3.354-0.792    L326.462,209.249z M201.849,102.502v-50c0-4.136,3.364-7.5,7.5-7.5c0.013,0,0.026-0.002,0.039-0.002h89.142    c0.013,0,0.026,0.002,0.039,0.002c4.136,0,7.5,3.364,7.5,7.5v50c0,4.123-3.344,7.477-7.461,7.498H209.31    C205.192,109.979,201.849,106.625,201.849,102.502z M414.962,15v15h-322c0,0,0-15,0-15H414.962z M82.962,45H188.14    c-0.833,2.348-1.291,4.872-1.291,7.502v50c0,2.628,0.457,5.151,1.289,7.498H82.962V45z M74.344,433.574    c-7.725-2.922-15.414-6.034-22.981-9.319l7.892-58.098c7.049,3.535,14.196,6.877,21.435,10.015L74.344,433.574z M82.416,360.539    c-7.104-3.176-14.117-6.548-21.025-10.122l2.152-15.833c6.771,3.62,13.66,7.057,20.607,10.274L82.416,360.539z M172.829,490.68    c-29.672-4.654-58.853-11.851-87.318-21.609l1.689-15.28c28.047,9.828,57.014,17.171,86.332,21.863L172.829,490.68z     M174.238,460.565c-29.009-4.746-57.655-12.154-85.346-22.081l6.231-56.368c26.339,10.296,53.737,18.009,81.708,23.016    L174.238,460.565z M253.96,497c-22.262,0-44.361-1.412-66.215-4.191l3.989-85.272c20.549,2.952,41.354,4.464,62.227,4.464    c20.58,0,41.092-1.466,61.358-4.336l2.417,55.237C296.73,465.623,275.453,467,253.962,467c-14.064,0-28.235-0.596-42.119-1.771    c-4.134-0.357-7.757,2.713-8.106,6.84c-0.35,4.127,2.713,7.757,6.84,8.106c14.303,1.211,28.899,1.825,43.384,1.825    c21.706,0,43.203-1.36,64.433-4.057l0.658,15.042C297.609,495.653,275.895,497,253.96,497z M192.439,392.482l0.701-14.994    c20.009,2.999,40.319,4.512,60.821,4.512c20.116,0,40.273-1.479,60.042-4.4l0.658,15.003c-20.039,2.908-40.334,4.397-60.699,4.397    C233.319,397,212.746,395.47,192.439,392.482z M326.305,315.579c-0.182-4.139-3.69-7.353-7.821-7.165    c-4.138,0.181-7.346,3.683-7.165,7.821l2.026,46.283C293.81,365.484,273.869,367,253.963,367c-20.275,0-40.349-1.546-60.116-4.589    l2.179-46.576c0.194-4.138-3.003-7.649-7.141-7.842c-4.153-0.208-7.649,3.003-7.842,7.141l-2.091,44.698    c-18.791-3.646-37.271-8.672-55.34-15.07c-3.903-1.38-8.19,0.662-9.573,4.566c-1.383,3.904,0.662,8.19,4.566,9.573    c19.461,6.891,39.381,12.241,59.639,16.058l-0.705,15.067c-27.667-5.085-54.739-12.914-80.707-23.359l2.817-25.482    c0.002-0.015,0.003-0.03,0.005-0.046l17.443-157.788c0.455-4.117-2.514-7.824-6.63-8.279c-4.119-0.45-7.823,2.513-8.279,6.63    L85.893,329.098c-6.824-3.27-13.577-6.749-20.191-10.41l24.736-182.103c26.458,30.448,62.237,44.217,76.024,48.638v41.891    c0,48.248,39.252,87.5,87.5,87.5c48.248,0,87.5-39.252,87.5-87.5v-41.891c13.788-4.422,49.566-18.19,76.024-48.638l24.735,182.094    c-29.308,16.227-60.618,28.57-93.153,36.697c-4.019,1.003-6.463,5.075-5.459,9.094c0.852,3.409,3.909,5.685,7.271,5.685    c0.602,0,1.213-0.073,1.823-0.226c31.921-7.973,62.705-19.857,91.677-35.352l2.152,15.843    c-36.618,18.949-76.15,32.333-116.964,39.752L326.305,315.579z M330.231,405.286c41.231-7.296,81.231-20.467,118.44-39.128    l7.76,57.128c-3.966,1.802-7.956,3.575-11.945,5.262c-36.053,15.249-73.457,26.002-111.828,32.189L330.231,405.286z     M333.978,490.913l-0.661-15.096c40.159-6.331,79.3-17.503,117.011-33.454c2.735-1.157,5.477-2.351,8.21-3.564l2.1,15.456    C419.901,471.949,377.532,484.198,333.978,490.913z"/>
	</g>
</g>
<g>
	<g>
		<path d="M283.577,70.386h-59.229c-4.142,0-7.5,3.358-7.5,7.5c0,4.142,3.358,7.5,7.5,7.5h59.229c4.143,0,7.5-3.358,7.5-7.5    C291.077,73.744,287.72,70.386,283.577,70.386z"/>
	</g>
</g>
<g>
	<g>
		<circle cx="253.96" cy="202.11" r="7.5"/>
	</g>
</g>
<g>
</g>
<g>
</g>
<g>
</g>
<g>
</g>
<g>
</g>
<g>
</g>
<g>
</g>
<g>
</g>
<g>
</g>
<g>
</g>
<g>
</g>
<g>
</g>
<g>
</g>
<g>
</g>
<g>
</g>
</svg>
