<?xml version="1.0" encoding="iso-8859-1"?>
<!-- Generator: Adobe Illustrator 19.0.0, SVG Export Plug-In . SVG Version: 6.00 Build 0)  -->
<svg xmlns="http://www.w3.org/2000/svg" xmlns:xlink="http://www.w3.org/1999/xlink" version="1.1" id="Layer_1" x="0px" y="0px" viewBox="0 0 512 512" style="enable-background:new 0 0 512 512;" xml:space="preserve">
<g>
	<g>
		<path d="M480.04,123.683l-82.169-36.584l-42.562-66.765C348.041,8.932,331.756,0,318.234,0H193.766    c-13.521,0-29.807,8.931-37.075,20.333L114.13,87.099l-82.11,36.559C14.064,131.466,0,152.921,0,172.5v302    C0,495.178,16.822,512,37.5,512h437c20.678,0,37.5-16.822,37.5-37.5v-302C512,152.921,497.936,131.466,480.04,123.683z     M280.315,191.429l21.322,75.918L256,331.05l-45.638-63.703l21.321-75.918H280.315z M233.5,176.429v-51.216h45v51.216H233.5z     M294.519,186.525l90.74-77.257v41.355l-72.429,101.1L294.519,186.525z M169.339,28.396C173.889,21.26,185.303,15,193.766,15    h124.468c8.463,0,19.877,6.26,24.426,13.396l40.263,63.16L293.5,167.693V91.177l41.302-35.167    c3.154-2.686,3.534-7.419,0.848-10.573c-2.686-3.153-7.418-3.533-10.573-0.848l-43.94,37.413c-1.673,1.425-2.638,3.512-2.638,5.71    v22.5h-45v-22.5c0-2.198-0.964-4.286-2.638-5.71L186.92,44.589c-3.153-2.686-7.887-2.306-10.573,0.848    c-2.686,3.154-2.306,7.888,0.849,10.573L218.5,91.177v76.516l-89.424-76.136L169.339,28.396z M126.74,109.267l90.74,77.258    l-18.311,65.199L126.74,150.623V109.267z M497,474.5c0,12.407-10.093,22.5-22.5,22.5h-437C25.093,497,15,486.907,15,474.5v-302    c0-13.596,10.534-29.665,23.061-35.114l73.679-32.804l0.001,369.918c0,4.142,3.358,7.5,7.5,7.5c4.142,0,7.5-3.358,7.5-7.5    l-0.001-298.122l121.76,169.96V474.5c0,4.142,3.358,7.5,7.5,7.5c4.142,0,7.5-3.358,7.5-7.5V346.338l52.49-73.268    c0.001-0.002,69.27-96.691,69.27-96.691V474.5c0,4.142,3.358,7.5,7.5,7.5c4.142,0,7.5-3.358,7.5-7.5V104.582l73.739,32.83    C486.466,142.835,497,158.904,497,172.5V474.5z"/>
	</g>
</g>
<g>
	<g>
		<path d="M300.9,356.43c-12.407,0-22.5,10.093-22.5,22.5c0,12.407,10.093,22.5,22.5,22.5c12.407,0,22.5-10.093,22.5-22.5    C323.4,366.523,313.307,356.43,300.9,356.43z M300.9,386.43c-4.136,0-7.5-3.364-7.5-7.5s3.364-7.5,7.5-7.5s7.5,3.364,7.5,7.5    S305.036,386.43,300.9,386.43z"/>
	</g>
</g>
<g>
	<g>
		<path d="M300.9,417c-12.407,0-22.5,10.093-22.5,22.5c0,12.407,10.093,22.5,22.5,22.5c12.407,0,22.5-10.093,22.5-22.5    C323.4,427.093,313.307,417,300.9,417z M300.9,447c-4.136,0-7.5-3.364-7.5-7.5s3.364-7.5,7.5-7.5s7.5,3.364,7.5,7.5    S305.036,447,300.9,447z"/>
	</g>
</g>
<g>
	<g>
		<circle cx="47.5" cy="172.5" r="7.5"/>
	</g>
</g>
<g>
	<g>
		<circle cx="77.5" cy="202.5" r="7.5"/>
	</g>
</g>
<g>
	<g>
		<circle cx="159.24" cy="434.5" r="7.5"/>
	</g>
</g>
<g>
</g>
<g>
</g>
<g>
</g>
<g>
</g>
<g>
</g>
<g>
</g>
<g>
</g>
<g>
</g>
<g>
</g>
<g>
</g>
<g>
</g>
<g>
</g>
<g>
</g>
<g>
</g>
<g>
</g>
</svg>
