<?xml version="1.0" encoding="iso-8859-1"?>
<!-- Generator: Adobe Illustrator 19.0.0, SVG Export Plug-In . SVG Version: 6.00 Build 0)  -->
<svg xmlns="http://www.w3.org/2000/svg" xmlns:xlink="http://www.w3.org/1999/xlink" version="1.1" id="Layer_1" x="0px" y="0px" viewBox="0 0 512 512" style="enable-background:new 0 0 512 512;" xml:space="preserve">
<g>
	<g>
		<path d="M465.595,461.595l-76.013-208.844c-9.289-27.416-27.183-51.674-50.646-68.784l9.892-89.027    c0.724,0.033,1.449,0.06,2.174,0.06c26.191,0,47.5-21.309,47.5-47.5S377.194,0,351.002,0h-43.049    c-2.677,0-5.151,1.427-6.491,3.743C292.089,19.939,274.669,30,256,30s-36.089-10.061-45.462-26.257    c-0.022-0.038-0.051-0.072-0.073-0.109c-0.124-0.206-0.257-0.404-0.4-0.596c-0.047-0.063-0.093-0.127-0.141-0.189    c-0.182-0.23-0.374-0.453-0.582-0.66c-0.016-0.016-0.033-0.029-0.049-0.045c-0.194-0.19-0.4-0.367-0.614-0.536    c-0.065-0.051-0.131-0.099-0.197-0.147c-0.186-0.137-0.378-0.265-0.577-0.384c-0.057-0.034-0.112-0.07-0.169-0.103    c-0.262-0.148-0.531-0.284-0.811-0.4c-0.277-0.114-0.554-0.206-0.836-0.285c-0.072-0.02-0.145-0.038-0.218-0.056    c-0.223-0.056-0.45-0.101-0.681-0.137c-0.079-0.012-0.157-0.026-0.236-0.036c-0.298-0.036-0.6-0.06-0.908-0.06h-43.049    c-26.191,0-47.5,21.309-47.5,47.5s21.309,47.5,47.5,47.5c0.724,0,1.447-0.027,2.17-0.06l9.892,89.027    c-23.465,17.111-41.358,41.371-50.642,68.785L46.405,461.595c-1.371,3.767,0.463,7.946,4.163,9.488    C115.728,498.233,184.845,512,256,512c71.156,0,140.273-13.767,205.432-40.917C465.132,469.542,466.966,465.362,465.595,461.595z     M171.76,36.443c-0.458-4.117-4.162-7.081-8.282-6.626c-4.117,0.458-7.083,4.166-6.626,8.282l4.654,41.886    c-0.169,0.004-0.338,0.015-0.508,0.015c-17.92,0-32.5-14.58-32.5-32.5s14.58-32.5,32.5-32.5h38.891    C212.357,33.609,233.47,45,256,45c22.531,0,43.644-11.391,56.111-30h38.892c17.92,0,32.5,14.58,32.5,32.5s-14.58,32.5-32.5,32.5    c-0.171,0-0.341-0.011-0.512-0.014l4.654-41.886c0.458-4.117-2.509-7.825-6.626-8.282c-4.107-0.453-7.824,2.509-8.282,6.626    L328.73,140H183.266l-6.034-54.31c-0.003-0.022-0.005-0.045-0.008-0.067L171.76,36.443z M327.063,155l-2.778,25H187.711l-2.778-25    H327.063z M136.542,257.802c0.02-0.054,0.039-0.109,0.058-0.164c8.49-25.125,25.097-47.274,46.857-62.638H328.54    c21.758,15.363,38.366,37.512,46.862,62.639c0.019,0.055,0.038,0.109,0.057,0.163l25.684,70.566    C355.249,347.366,306.459,357,256,357c-50.458,0-99.248-9.634-145.142-28.632L136.542,257.802z M92.025,380.112    c19.035,7.746,38.757,14.172,58.742,19.121c0.605,0.15,1.211,0.222,1.809,0.222c3.367,0,6.429-2.284,7.274-5.699    c0.996-4.021-1.457-8.087-5.478-9.083c-19.472-4.822-38.681-11.1-57.213-18.67l8.563-23.527C153.267,362.066,203.78,372,256,372    c52.221,0,102.733-9.934,150.277-29.524l8.565,23.532C364.568,386.572,311.168,397,256,397c-24.419,0-48.908-2.106-72.788-6.259    c-4.083-0.713-7.964,2.023-8.674,6.104c-0.709,4.081,2.023,7.964,6.104,8.674c24.726,4.3,50.08,6.48,75.358,6.48    c56.929,0,112.05-10.729,163.975-31.887l5.14,14.121C371.556,415.976,314.701,427,256,427c-58.7,0-115.556-11.024-169.115-32.765    L92.025,380.112z M256,497c-66.754,0-131.66-12.464-193.032-37.053l18.784-51.609C136.961,430.674,195.539,442,256,442    s119.039-11.326,174.248-33.662l18.784,51.609C387.661,484.536,322.754,497,256,497z"/>
	</g>
</g>
<g>
	<g>
		<circle cx="320.63" cy="302.5" r="7.5"/>
	</g>
</g>
<g>
	<g>
		<circle cx="350.63" cy="272.5" r="7.5"/>
	</g>
</g>
<g>
</g>
<g>
</g>
<g>
</g>
<g>
</g>
<g>
</g>
<g>
</g>
<g>
</g>
<g>
</g>
<g>
</g>
<g>
</g>
<g>
</g>
<g>
</g>
<g>
</g>
<g>
</g>
<g>
</g>
</svg>
