<?xml version="1.0" encoding="iso-8859-1"?>
<!-- Generator: Adobe Illustrator 19.0.0, SVG Export Plug-In . SVG Version: 6.00 Build 0)  -->
<svg xmlns="http://www.w3.org/2000/svg" xmlns:xlink="http://www.w3.org/1999/xlink" version="1.1" id="Layer_1" x="0px" y="0px" viewBox="0 0 512 512" style="enable-background:new 0 0 512 512;" xml:space="preserve">
<g>
	<g>
		<path d="M326.029,496.994h-3.256c-2.991-14.678-14.579-26.266-29.257-29.257v-9.133c0-10.015-3.068-19.535-8.768-27.516    c11.877-10.825,18.772-26.197,18.772-42.514v-62.526h12.505c4.145,0,7.503-3.359,7.503-7.503s-3.358-7.503-7.503-7.503H303.52    V177.359c0-20.687-16.829-37.516-37.516-37.516h-2.501v-15.605c22.65-3.609,40.017-23.273,40.017-46.922    c0-9.693-2.908-19.024-8.434-27.018L262.149,3.203C260.744,1.195,258.449,0,255.999,0c-2.449,0-4.745,1.195-6.149,3.203    L216.89,50.332c-5.501,7.96-8.41,17.291-8.41,26.984c0,23.649,17.367,43.313,40.017,46.922v15.605h-2.501    c-20.687,0-37.516,16.829-37.516,37.516v133.682h-12.505c-4.145,0-7.503,3.359-7.503,7.503s3.358,7.503,7.503,7.503h12.505v62.526    c0,16.318,6.895,31.689,18.772,42.514c-5.698,7.98-8.768,17.5-8.768,27.516v9.133c-14.678,2.991-26.266,14.579-29.257,29.257    h-3.256c-4.145,0-7.503,3.359-7.503,7.503s3.358,7.503,7.503,7.503H326.03c4.145,0,7.503-3.359,7.503-7.503    S330.174,496.994,326.029,496.994z M248.496,77.317v31.63c-14.321-3.397-25.011-16.285-25.011-31.63    c0-6.631,1.988-13.012,5.724-18.419l26.789-38.304l26.765,38.269c3.761,5.441,5.748,11.822,5.748,18.453    c0,15.345-10.69,28.233-25.011,31.63V77.317c0-4.144-3.358-7.503-7.503-7.503C251.855,69.813,248.496,73.173,248.496,77.317z     M223.486,177.359c0-12.412,10.098-22.51,22.51-22.51h20.008c12.411,0,22.51,10.097,22.51,22.51v133.682h-65.027V177.359z     M223.486,388.574v-62.526h65.027v62.526c0,13.396-6.297,25.923-16.937,33.95h-31.153    C229.783,414.497,223.486,401.97,223.486,388.574z M278.509,458.603v8.378H233.49v-8.378c0-7.82,2.742-15.196,7.768-21.073h29.482    C275.766,443.406,278.509,450.783,278.509,458.603z M204.768,496.994c3.097-8.733,11.438-15.006,21.219-15.006h60.025    c9.781,0,18.122,6.274,21.219,15.006H204.768z"/>
	</g>
</g>
<g>
	<g>
		<path d="M266.004,341.054h-20.008c-4.145,0-7.503,3.359-7.503,7.503s3.359,7.503,7.503,7.503h20.008    c4.145,0,7.503-3.359,7.503-7.503S270.148,341.054,266.004,341.054z"/>
	</g>
</g>
<g>
	<g>
		<path d="M496.101,496.994h-3.256c-2.991-14.678-14.579-26.266-29.257-29.257v-9.133c0-10.015-3.068-19.535-8.768-27.516    c11.877-10.825,18.772-26.197,18.772-42.514v-62.526h12.505c4.145,0,7.503-3.359,7.503-7.503s-3.358-7.503-7.503-7.503h-12.505    V177.359c0-20.687-16.829-37.516-37.516-37.516h-2.501v-15.605c22.65-3.609,40.017-23.273,40.017-46.922    c0-9.693-2.908-19.024-8.434-27.018L432.221,3.203C430.816,1.195,428.52,0,426.071,0s-4.745,1.195-6.149,3.203l-32.961,47.129    c-5.501,7.96-8.41,17.291-8.41,26.984c0,23.649,17.367,43.313,40.017,46.922v15.605h-2.501c-20.687,0-37.516,16.829-37.516,37.516    v133.682h-12.505c-4.145,0-7.503,3.359-7.503,7.503s3.358,7.503,7.503,7.503h12.505v62.526c0,16.318,6.895,31.689,18.772,42.514    c-5.698,7.98-8.768,17.5-8.768,27.516v9.133c-14.678,2.991-26.266,14.579-29.257,29.257h-3.256c-4.145,0-7.503,3.359-7.503,7.503    s3.358,7.503,7.503,7.503h140.059c4.145,0,7.503-3.359,7.503-7.503S500.246,496.994,496.101,496.994z M418.568,77.317v31.63    c-14.321-3.397-25.011-16.285-25.011-31.63c0-6.631,1.988-13.012,5.724-18.419l26.789-38.304l26.765,38.269    c3.761,5.441,5.748,11.822,5.748,18.453c0,15.345-10.69,28.233-25.011,31.63V77.317c0-4.144-3.358-7.503-7.503-7.503    S418.568,73.173,418.568,77.317z M393.558,177.359c0-12.412,10.098-22.51,22.509-22.51h20.008    c12.411,0,22.509,10.097,22.509,22.51v133.682h-65.027V177.359z M393.558,388.574v-62.526h65.027v62.526    c0,13.396-6.297,25.923-16.937,33.95h-31.153C399.855,414.497,393.558,401.97,393.558,388.574z M448.581,458.603v8.378h-45.019    v-8.378c0-7.82,2.742-15.196,7.768-21.073h29.482C445.838,443.406,448.581,450.783,448.581,458.603z M374.84,496.994    c3.097-8.733,11.438-15.006,21.219-15.006h60.025c9.781,0,18.122,6.274,21.219,15.006H374.84z"/>
	</g>
</g>
<g>
	<g>
		<path d="M436.075,341.054h-20.008c-4.145,0-7.503,3.359-7.503,7.503s3.359,7.503,7.503,7.503h20.008    c4.145,0,7.503-3.359,7.503-7.503S440.22,341.054,436.075,341.054z"/>
	</g>
</g>
<g>
	<g>
		<path d="M155.957,496.994h-3.256c-2.991-14.678-14.579-26.266-29.257-29.257v-9.133c0-10.015-3.068-19.535-8.768-27.516    c11.877-10.825,18.772-26.197,18.772-42.514v-62.526h12.505c4.145,0,7.503-3.359,7.503-7.503s-3.358-7.503-7.503-7.503h-12.505    V177.359c0-20.687-16.829-37.516-37.516-37.516h-2.501v-15.605c22.65-3.609,40.017-23.273,40.017-46.922    c0-9.693-2.908-19.024-8.434-27.018L92.077,3.203C90.673,1.195,88.377,0,85.928,0s-4.745,1.195-6.149,3.203L46.817,50.332    c-5.501,7.96-8.41,17.291-8.41,26.984c0,23.649,17.367,43.313,40.017,46.922v15.605h-2.501c-20.687,0-37.516,16.829-37.516,37.516    v133.682H25.902c-4.145,0-7.503,3.359-7.503,7.503s3.358,7.503,7.503,7.503h12.505v62.526c0,16.318,6.895,31.689,18.772,42.514    c-5.698,7.98-8.768,17.5-8.768,27.516v9.133c-14.678,2.991-26.266,14.579-29.257,29.257h-3.256c-4.145,0-7.503,3.359-7.503,7.503    S11.753,512,15.898,512h140.059c4.145,0,7.503-3.359,7.503-7.503S160.102,496.994,155.957,496.994z M53.414,77.317    c0-6.631,1.988-13.012,5.724-18.419l26.789-38.304l26.765,38.269c3.761,5.441,5.748,11.822,5.748,18.453    c0,15.345-10.69,28.233-25.011,31.63V77.317c0-4.144-3.358-7.503-7.503-7.503c-4.145,0-7.503,3.359-7.503,7.503v31.63    C64.104,105.55,53.414,92.662,53.414,77.317z M53.414,177.359c0-12.412,10.098-22.51,22.509-22.51h20.008    c12.411,0,22.509,10.097,22.509,22.51v133.682H53.414V177.359z M53.414,388.574v-62.526h65.027v62.526    c0,13.396-6.297,25.923-16.937,33.95H70.351C59.712,414.497,53.414,401.97,53.414,388.574z M108.437,458.603v8.378H63.418v-8.378    c0-7.82,2.742-15.196,7.768-21.073h29.482C105.694,443.406,108.437,450.783,108.437,458.603z M34.696,496.994    c3.097-8.733,11.438-15.006,21.219-15.006h60.025c9.781,0,18.122,6.274,21.219,15.006H34.696z"/>
	</g>
</g>
<g>
	<g>
		<path d="M95.932,341.054H75.924c-4.145,0-7.503,3.359-7.503,7.503s3.359,7.503,7.503,7.503h20.008    c4.145,0,7.503-3.359,7.503-7.503S100.077,341.054,95.932,341.054z"/>
	</g>
</g>
<g>
</g>
<g>
</g>
<g>
</g>
<g>
</g>
<g>
</g>
<g>
</g>
<g>
</g>
<g>
</g>
<g>
</g>
<g>
</g>
<g>
</g>
<g>
</g>
<g>
</g>
<g>
</g>
<g>
</g>
</svg>
