<?xml version="1.0" encoding="iso-8859-1"?>
<!-- Generator: Adobe Illustrator 19.0.0, SVG Export Plug-In . SVG Version: 6.00 Build 0)  -->
<svg xmlns="http://www.w3.org/2000/svg" xmlns:xlink="http://www.w3.org/1999/xlink" version="1.1" id="Layer_1" x="0px" y="0px" viewBox="0 0 512 512" style="enable-background:new 0 0 512 512;" xml:space="preserve">
<g>
	<g>
		<path d="M181,192h-11.75c-4.143,0-7.5,3.358-7.5,7.5v81.493c0,3.024,1.816,5.753,4.607,6.919    c14.781,6.18,28.292,15.769,39.071,27.729c1.45,1.61,3.488,2.479,5.573,2.479c0.901,0,1.813-0.163,2.688-0.5    c2.897-1.113,4.811-3.896,4.811-7.001V229.5C218.5,208.822,201.678,192,181,192z M203.5,293.076    c-8.166-6.761-17.19-12.491-26.75-16.962V207H181c12.406,0,22.5,10.093,22.5,22.5V293.076z"/>
	</g>
</g>
<g>
	<g>
		<path d="M211,381.25c-13.185,0-20.265,4.897-25.954,8.832c-4.982,3.446-8.918,6.168-17.421,6.168s-12.438-2.722-17.421-6.168    c-5.689-3.935-12.77-8.832-25.954-8.832s-20.265,4.897-25.954,8.832c-4.982,3.446-8.918,6.168-17.421,6.168    s-12.438-2.722-17.421-6.168c-5.689-3.935-12.77-8.832-25.954-8.832c-4.143,0-7.5,3.358-7.5,7.5v85.75c0,4.142,3.357,7.5,7.5,7.5    H211c4.143,0,7.5-3.358,7.5-7.5v-85.75C218.5,384.608,215.143,381.25,211,381.25z M203.5,467H45v-69.833    c3.891,1.08,6.685,3.013,9.921,5.251c5.689,3.935,12.77,8.832,25.954,8.832s20.265-4.897,25.954-8.832    c4.982-3.446,8.918-6.168,17.421-6.168s12.438,2.722,17.421,6.168c5.689,3.935,12.77,8.832,25.954,8.832    c13.184,0,20.265-4.897,25.954-8.832c3.236-2.238,6.03-4.171,9.921-5.251V467z"/>
	</g>
</g>
<g>
	<g>
		<path d="M109.25,252c-4.143,0-7.5,3.358-7.5,7.5v36.474l-13.821,5.778c-24.232,10.132-43.269,30.038-52.228,54.614    c-1.418,3.892,0.587,8.197,4.479,9.615c0.848,0.309,1.715,0.456,2.567,0.456c3.063,0,5.938-1.89,7.048-4.933    c7.529-20.656,23.538-37.391,43.92-45.913l18.428-7.705c2.791-1.167,4.607-3.895,4.607-6.919V259.5    C116.75,255.358,113.393,252,109.25,252z"/>
	</g>
</g>
<g>
	<g>
		<path d="M212.798,356.364c-8.96-24.577-27.996-44.482-52.228-54.612l-13.82-5.778V199.5c0-4.142-3.357-7.5-7.5-7.5h-30    c-4.143,0-7.5,3.358-7.5,7.5v30c0,4.142,3.357,7.5,7.5,7.5h22.5v63.967c0,3.024,1.816,5.753,4.607,6.919l18.428,7.705    c20.381,8.521,36.39,25.255,43.921,45.911c1.109,3.044,3.984,4.933,7.047,4.933c0.853,0,1.721-0.146,2.568-0.456    C212.213,364.56,214.217,360.255,212.798,356.364z M131.75,222h-15v-15h15V222z"/>
	</g>
</g>
<g>
	<g>
		<path d="M186.192,162.219c-3.136-20.3-19.172-36.392-39.442-39.622V81h21v2.5c0,4.142,3.357,7.5,7.5,7.5s7.5-3.358,7.5-7.5v-50    c0-4.142-3.357-7.5-7.5-7.5s-7.5,3.358-7.5,7.5V36h-21V15h2.5c4.143,0,7.5-3.358,7.5-7.5s-3.357-7.5-7.5-7.5h-50    c-4.143,0-7.5,3.358-7.5,7.5s3.357,7.5,7.5,7.5h2.5v21h-21v-2.5c0-4.142-3.357-7.5-7.5-7.5s-7.5,3.358-7.5,7.5v50    c0,4.142,3.357,7.5,7.5,7.5s7.5-3.358,7.5-7.5V81h21v41.598C81.554,125.816,65.566,141.804,62.348,162H49.25    c-4.143,0-7.5,3.358-7.5,7.5c0,18.109,12.904,33.262,30,36.747v69.862C27.997,296.49,0,340.165,0,388.75V504.5    c0,4.142,3.357,7.5,7.5,7.5H241c4.143,0,7.5-3.358,7.5-7.5v-275C248.5,194.029,220.992,164.882,186.192,162.219z M80.75,66V51    h28.5c4.143,0,7.5-3.358,7.5-7.5V15h15v28.5c0,4.142,3.357,7.5,7.5,7.5h28.5v15h-28.5c-4.143,0-7.5,3.358-7.5,7.5V122h-15V73.5    c0-4.142-3.357-7.5-7.5-7.5H80.75z M109.25,137h30c15.339,0,28.221,10.685,31.617,25H77.633C81.029,147.685,93.911,137,109.25,137    z M233.5,497H15V388.75c0-44.203,26.355-83.784,67.143-100.837c2.791-1.167,4.607-3.895,4.607-6.919V199.5    c0-4.142-3.357-7.5-7.5-7.5c-9.778,0-18.119-6.27-21.215-15H181c28.948,0,52.5,23.551,52.5,52.5V497z"/>
	</g>
</g>
<g>
	<g>
		<path d="M444.5,192h-11.75c-4.143,0-7.5,3.358-7.5,7.5v81.493c0,3.024,1.816,5.753,4.607,6.919    c14.781,6.18,28.292,15.769,39.071,27.729c1.45,1.61,3.488,2.479,5.573,2.479c0.901,0,1.813-0.163,2.688-0.5    c2.897-1.113,4.811-3.896,4.811-7.001V229.5C482,208.822,465.178,192,444.5,192z M467,293.076    c-8.166-6.761-17.19-12.491-26.75-16.962V207h4.25c12.406,0,22.5,10.093,22.5,22.5V293.076z"/>
	</g>
</g>
<g>
	<g>
		<path d="M474.5,381.25c-13.185,0-20.265,4.897-25.954,8.832c-4.982,3.446-8.918,6.168-17.421,6.168s-12.438-2.722-17.421-6.168    c-5.689-3.935-12.77-8.832-25.954-8.832s-20.265,4.897-25.954,8.832c-4.982,3.446-8.918,6.168-17.421,6.168    s-12.438-2.722-17.421-6.168c-5.689-3.935-12.77-8.832-25.954-8.832c-4.143,0-7.5,3.358-7.5,7.5v85.75c0,4.142,3.357,7.5,7.5,7.5    h173.5c4.143,0,7.5-3.358,7.5-7.5v-85.75C482,384.608,478.643,381.25,474.5,381.25z M467,467H308.5v-69.833    c3.891,1.08,6.685,3.013,9.921,5.251c5.689,3.935,12.77,8.832,25.954,8.832s20.265-4.897,25.954-8.832    c4.982-3.446,8.918-6.168,17.421-6.168s12.438,2.722,17.421,6.168c5.689,3.935,12.77,8.832,25.954,8.832    s20.265-4.897,25.954-8.832c3.236-2.238,6.03-4.171,9.921-5.251V467z"/>
	</g>
</g>
<g>
	<g>
		<path d="M372.75,252c-4.143,0-7.5,3.358-7.5,7.5v36.474l-13.821,5.778c-24.232,10.132-43.269,30.038-52.228,54.614    c-1.418,3.892,0.587,8.197,4.479,9.615c0.848,0.309,1.715,0.456,2.567,0.456c3.063,0,5.938-1.89,7.048-4.933    c7.529-20.656,23.538-37.391,43.92-45.913l18.428-7.705c2.791-1.167,4.607-3.895,4.607-6.919V259.5    C380.25,255.358,376.893,252,372.75,252z"/>
	</g>
</g>
<g>
	<g>
		<path d="M476.298,356.364c-8.96-24.577-27.996-44.482-52.228-54.612l-13.82-5.778V199.5c0-4.142-3.357-7.5-7.5-7.5h-30    c-4.143,0-7.5,3.358-7.5,7.5v30c0,4.142,3.357,7.5,7.5,7.5h22.5v63.967c0,3.024,1.816,5.753,4.607,6.919l18.428,7.705    c20.381,8.521,36.39,25.255,43.921,45.911c1.109,3.044,3.984,4.933,7.047,4.933c0.853,0,1.721-0.146,2.568-0.456    C475.713,364.56,477.717,360.255,476.298,356.364z M395.25,222h-15v-15h15V222z"/>
	</g>
</g>
<g>
	<g>
		<path d="M449.692,162.219c-3.136-20.3-19.172-36.392-39.442-39.622V81h21v2.5c0,4.142,3.357,7.5,7.5,7.5s7.5-3.358,7.5-7.5v-50    c0-4.142-3.357-7.5-7.5-7.5s-7.5,3.358-7.5,7.5V36h-21V15h2.5c4.143,0,7.5-3.358,7.5-7.5s-3.357-7.5-7.5-7.5h-50    c-4.143,0-7.5,3.358-7.5,7.5s3.357,7.5,7.5,7.5h2.5v21h-21v-2.5c0-4.142-3.357-7.5-7.5-7.5s-7.5,3.358-7.5,7.5v50    c0,4.142,3.357,7.5,7.5,7.5s7.5-3.358,7.5-7.5V81h21v41.598c-20.196,3.218-36.184,19.207-39.402,39.402H312.75    c-4.143,0-7.5,3.358-7.5,7.5c0,18.109,12.904,33.262,30,36.747v69.862c-43.753,20.381-71.75,64.056-71.75,112.641V504.5    c0,4.142,3.357,7.5,7.5,7.5h233.5c4.143,0,7.5-3.358,7.5-7.5v-275C512,194.029,484.492,164.882,449.692,162.219z M344.25,66V51    h28.5c4.143,0,7.5-3.358,7.5-7.5V15h15v28.5c0,4.142,3.357,7.5,7.5,7.5h28.5v15h-28.5c-4.143,0-7.5,3.358-7.5,7.5V122h-15V73.5    c0-4.142-3.357-7.5-7.5-7.5H344.25z M372.75,137h30c15.339,0,28.221,10.685,31.617,25h-93.234    C344.529,147.685,357.411,137,372.75,137z M497,497H278.5V388.75c0-44.203,26.355-83.784,67.143-100.837    c2.791-1.167,4.607-3.895,4.607-6.919V199.5c0-4.142-3.357-7.5-7.5-7.5c-9.778,0-18.119-6.27-21.215-15H444.5    c28.948,0,52.5,23.551,52.5,52.5V497z"/>
	</g>
</g>
<g>
</g>
<g>
</g>
<g>
</g>
<g>
</g>
<g>
</g>
<g>
</g>
<g>
</g>
<g>
</g>
<g>
</g>
<g>
</g>
<g>
</g>
<g>
</g>
<g>
</g>
<g>
</g>
<g>
</g>
</svg>
