<?xml version="1.0" encoding="iso-8859-1"?>
<!-- Generator: Adobe Illustrator 19.0.0, SVG Export Plug-In . SVG Version: 6.00 Build 0)  -->
<svg xmlns="http://www.w3.org/2000/svg" xmlns:xlink="http://www.w3.org/1999/xlink" version="1.1" id="Layer_1" x="0px" y="0px" viewBox="0 0 512 512" style="enable-background:new 0 0 512 512;" xml:space="preserve">
<g>
	<g>
		<path d="M450.18,215.26c0-29.72-24.055-53.917-53.716-54.168c4.482-7.883,7.056-16.987,7.056-26.685    c0-29.875-24.305-54.18-54.18-54.18c-19.845,0-37.222,10.731-46.66,26.689c-4.045-6.839-9.544-12.716-16.076-17.2    c33.326-12.446,57.122-44.602,57.122-82.215c0-4.142-3.357-7.5-7.5-7.5c-30.23,0-56.937,15.37-72.719,38.705L263.5,7.498    C263.5,3.356,260.143,0,256,0c-4.144,0.001-7.501,3.36-7.5,7.502l0.008,31.231C232.729,15.383,206.016,0,175.774,0    c-4.142,0-7.5,3.358-7.5,7.5c0,37.623,23.808,69.786,57.148,82.225c-6.526,4.483-12.02,10.357-16.062,17.191    c-9.438-15.958-26.815-26.689-46.66-26.689c-29.875,0-54.18,24.305-54.18,54.18c0,9.698,2.574,18.801,7.055,26.684    c-29.679,0.23-53.756,24.436-53.756,54.169s24.076,53.939,53.755,54.169c-4.482,7.883-7.055,16.986-7.055,26.684    c0,8.401,1.881,16.467,5.591,23.975c1.835,3.713,6.333,5.236,10.046,3.401c3.713-1.835,5.236-6.333,3.401-10.046    c-2.68-5.423-4.039-11.253-4.039-17.329c0-21.604,17.576-39.18,39.18-39.18c21.339,0,38.737,17.151,39.16,38.391    c-0.004,0.264-0.02,0.524-0.02,0.789s0.016,0.525,0.02,0.789c-0.423,21.24-17.821,38.391-39.16,38.391    c-6.076,0-11.906-1.359-17.328-4.039c-3.716-1.835-8.212-0.313-10.047,3.4c-1.835,3.713-0.313,8.211,3.4,10.047    c7.368,3.642,15.278,5.511,23.512,5.579c-4.482,7.884-7.057,16.987-7.057,26.686c0,29.719,24.055,53.917,53.716,54.168    c-4.482,7.883-7.056,16.987-7.056,26.685c0,29.875,24.305,54.18,54.18,54.18s54.18-24.305,54.18-54.18    c0-9.698-2.574-18.802-7.056-26.685c29.661-0.252,53.716-24.449,53.716-54.168c0-9.698-2.574-18.802-7.056-26.685    c29.661-0.252,53.715-24.449,53.715-54.168c0-9.698-2.574-18.802-7.056-26.685C426.125,269.177,450.18,244.979,450.18,215.26z     M310.18,133.618c0.424-21.24,17.821-38.391,39.16-38.391c21.604,0,39.18,17.576,39.18,39.18s-17.576,39.18-39.18,39.18    c-21.339,0-38.736-17.151-39.16-38.391c0.004-0.264,0.02-0.524,0.02-0.789C310.201,134.142,310.185,133.882,310.18,133.618z     M341.841,214.471c-0.004,0.264-0.02,0.524-0.02,0.789s0.016,0.525,0.02,0.789c-0.423,21.24-17.821,38.391-39.161,38.391    c-21.339,0-38.736-17.151-39.16-38.391c0.004-0.264,0.02-0.524,0.02-0.789s-0.016-0.525-0.02-0.789    c0.423-21.24,17.821-38.391,39.16-38.391C324.021,176.08,341.417,193.231,341.841,214.471z M295.18,296.902    c-0.423,21.24-17.821,38.391-39.16,38.391c-21.339,0-38.737-17.151-39.16-38.391c0.004-0.264,0.02-0.524,0.02-0.789    s-0.016-0.525-0.02-0.789c0.423-21.24,17.821-38.391,39.16-38.391s38.737,17.151,39.16,38.391c-0.004,0.264-0.02,0.524-0.02,0.789    S295.177,296.638,295.18,296.902z M328.297,15.429c-3.681,33.778-30.59,60.688-64.367,64.368    C267.612,46.019,294.521,19.11,328.297,15.429z M183.703,15.429c33.778,3.681,60.688,30.59,64.368,64.368    C214.294,76.117,187.385,49.208,183.703,15.429z M216.86,133.618c0.423-21.24,17.821-38.391,39.16-38.391    s38.737,17.151,39.16,38.391c-0.004,0.264-0.02,0.524-0.02,0.789s0.016,0.525,0.02,0.789c-0.423,21.24-17.821,38.391-39.16,38.391    c-21.339,0-38.737-17.151-39.16-38.391c0.004-0.264,0.02-0.524,0.02-0.789C216.88,134.142,216.865,133.882,216.86,133.618z     M116,254.44c-21.604,0-39.18-17.576-39.18-39.18s17.576-39.18,39.18-39.18s39.18,17.576,39.18,39.18    C155.18,236.864,137.604,254.44,116,254.44z M123.521,134.407c0-21.604,17.576-39.18,39.18-39.18    c21.339,0,38.737,17.151,39.16,38.391c-0.004,0.264-0.02,0.524-0.02,0.789s0.016,0.525,0.02,0.789    c-0.423,21.24-17.821,38.391-39.16,38.391C141.096,173.587,123.521,156.011,123.521,134.407z M170.18,215.26    c0-21.604,17.577-39.18,39.18-39.18c21.339,0,38.737,17.151,39.16,38.391c-0.004,0.264-0.02,0.524-0.02,0.789    s0.016,0.525,0.02,0.789c-0.423,21.24-17.821,38.391-39.16,38.391C187.756,254.44,170.18,236.864,170.18,215.26z M170.18,376.967    c0-21.604,17.576-39.18,39.18-39.18c21.339,0,38.737,17.151,39.16,38.391c-0.004,0.264-0.02,0.524-0.02,0.789    s0.016,0.525,0.02,0.789c-0.423,21.24-17.821,38.391-39.16,38.391C187.758,416.146,170.18,398.57,170.18,376.967z M256.021,497    c-21.604,0-39.18-17.576-39.18-39.18s17.576-39.18,39.18-39.18c21.604,0,39.18,17.576,39.18,39.18S277.625,497,256.021,497z     M302.68,416.146c-21.339,0-38.736-17.151-39.16-38.391c0.004-0.264,0.02-0.524,0.02-0.789s-0.016-0.525-0.02-0.789    c0.423-21.24,17.821-38.391,39.16-38.391c21.604,0,39.181,17.576,39.181,39.18S324.284,416.146,302.68,416.146z M349.341,335.293    c-21.339,0-38.736-17.151-39.16-38.391c0.004-0.264,0.02-0.524,0.02-0.789s-0.016-0.525-0.02-0.789    c0.423-21.24,17.821-38.391,39.16-38.391c21.604,0,39.18,17.576,39.18,39.18S370.945,335.293,349.341,335.293z M396,254.44    c-21.339,0-38.736-17.151-39.16-38.391c0.004-0.264,0.02-0.524,0.02-0.789s-0.016-0.525-0.02-0.789    c0.423-21.24,17.821-38.391,39.16-38.391c21.604,0,39.18,17.576,39.18,39.18S417.604,254.44,396,254.44z"/>
	</g>
</g>
<g>
	<g>
		<circle cx="412.68" cy="215.26" r="7.5"/>
	</g>
</g>
<g>
	<g>
		<circle cx="366.021" cy="296.11" r="7.5"/>
	</g>
</g>
<g>
	<g>
		<circle cx="226" cy="215.26" r="7.5"/>
	</g>
</g>
<g>
</g>
<g>
</g>
<g>
</g>
<g>
</g>
<g>
</g>
<g>
</g>
<g>
</g>
<g>
</g>
<g>
</g>
<g>
</g>
<g>
</g>
<g>
</g>
<g>
</g>
<g>
</g>
<g>
</g>
</svg>
