<?xml version="1.0" encoding="iso-8859-1"?>
<!-- Generator: Adobe Illustrator 19.0.0, SVG Export Plug-In . SVG Version: 6.00 Build 0)  -->
<svg xmlns="http://www.w3.org/2000/svg" xmlns:xlink="http://www.w3.org/1999/xlink" version="1.1" id="Layer_1" x="0px" y="0px" viewBox="0 0 512 512" style="enable-background:new 0 0 512 512;" xml:space="preserve">
<g>
	<g>
		<path d="M76,30c-4.142,0-7.5,3.358-7.5,7.5v74.86c0,4.142,3.358,7.5,7.5,7.5c4.142,0,7.5-3.358,7.5-7.5V37.5    C83.5,33.358,80.142,30,76,30z"/>
	</g>
</g>
<g>
	<g>
		<path d="M436,30c-4.142,0-7.5,3.358-7.5,7.5v74.86c0,4.142,3.358,7.5,7.5,7.5c4.142,0,7.5-3.358,7.5-7.5V37.5    C443.5,33.358,440.142,30,436,30z"/>
	</g>
</g>
<g>
	<g>
		<path d="M166,60c-4.142,0-7.5,3.358-7.5,7.5v54.18l-15,14.999V37.5c0-4.142-3.358-7.5-7.5-7.5c-4.142,0-7.5,3.358-7.5,7.5v114.179    l-14.51,14.51c-0.169,0.168-0.323,0.347-0.49,0.517V7.5c0-4.142-3.358-7.5-7.5-7.5c-4.142,0-7.5,3.358-7.5,7.5v159.205    c-0.161-0.165-0.31-0.338-0.474-0.501L53.5,121.68V67.5c0-4.142-3.358-7.5-7.5-7.5c-4.142,0-7.5,3.358-7.5,7.5v278.65    c0,14.082,5.501,27.305,15.474,37.218L98.5,427.893V504.5c0,4.142,3.358,7.5,7.5,7.5c4.142,0,7.5-3.358,7.5-7.5v-76.607    l44.51-44.509c9.989-9.93,15.49-23.153,15.49-37.234V67.5C173.5,63.358,170.142,60,166,60z M98.5,406.68l-33.935-33.934    C57.43,365.653,53.5,356.208,53.5,346.15v-43.257l33.935,33.934c7.135,7.092,11.065,16.538,11.065,26.596V406.68z M98.5,326.706    c-0.161-0.165-0.31-0.338-0.474-0.501L53.5,281.68v-58.787l33.935,33.934c7.135,7.092,11.065,16.538,11.065,26.596V326.706z     M98.5,246.706c-0.161-0.165-0.31-0.338-0.474-0.501L53.5,201.68v-58.787l33.935,33.934c7.135,7.092,11.065,16.538,11.065,26.596    V246.706z M158.5,346.149c0,10.059-3.93,19.504-11.081,26.613L113.5,406.68v-43.258c0-10.058,3.93-19.503,11.081-26.612    l33.919-33.918V346.149z M158.5,281.68l-44.51,44.508c-0.169,0.168-0.323,0.347-0.49,0.517v-43.283    c0-10.058,3.93-19.503,11.081-26.612l33.919-33.918V281.68z M158.5,201.68l-44.51,44.508c-0.169,0.168-0.323,0.347-0.49,0.517    v-43.283c0-10.057,3.93-19.503,11.081-26.611l33.919-33.918V201.68z"/>
	</g>
</g>
<g>
	<g>
		<path d="M256,0c-4.142,0-7.5,3.358-7.5,7.5v134.859c0,4.142,3.358,7.5,7.5,7.5c4.142,0,7.5-3.358,7.5-7.5V7.5    C263.5,3.358,260.142,0,256,0z"/>
	</g>
</g>
<g>
	<g>
		<path d="M316,60c-4.142,0-7.5,3.358-7.5,7.5v54.18l-15,14.999V37.5c0-4.142-3.358-7.5-7.5-7.5c-4.142,0-7.5,3.358-7.5,7.5v114.179    l-14.51,14.51c-3.107,3.089-5.78,6.497-7.989,10.15c-2.206-3.649-4.874-7.051-7.975-10.134L233.5,151.679V37.5    c0-4.142-3.358-7.5-7.5-7.5c-4.142,0-7.5,3.358-7.5,7.5v99.18l-15-15V67.5c0-4.142-3.358-7.5-7.5-7.5c-4.142,0-7.5,3.358-7.5,7.5    v278.65c0,14.082,5.501,27.305,15.474,37.218l44.526,44.525V504.5c0,4.142,3.358,7.5,7.5,7.5c4.142,0,7.5-3.358,7.5-7.5v-76.607    l44.51-44.509c9.989-9.93,15.49-23.153,15.49-37.234V67.5C323.5,63.358,320.142,60,316,60z M248.5,406.68l-33.935-33.934    c-7.135-7.093-11.065-16.538-11.065-26.596v-43.257l33.935,33.934c7.135,7.092,11.065,16.538,11.065,26.596V406.68z     M248.5,326.706c-0.161-0.165-0.31-0.338-0.474-0.501L203.5,281.68v-58.787l33.935,33.934    c7.135,7.092,11.065,16.538,11.065,26.596V326.706z M248.5,246.706c-0.161-0.165-0.31-0.338-0.474-0.501L203.5,201.68v-58.787    l33.935,33.934c7.135,7.092,11.065,16.538,11.065,26.596V246.706z M308.5,346.149c0,10.059-3.93,19.504-11.081,26.613    L263.5,406.68v-43.258c0-10.058,3.93-19.503,11.081-26.612l33.919-33.918V346.149z M308.5,281.68l-44.51,44.508    c-0.169,0.168-0.323,0.347-0.49,0.517v-43.283c0-10.058,3.93-19.503,11.081-26.612l33.919-33.918V281.68z M308.5,201.68    l-44.51,44.508c-0.169,0.168-0.323,0.347-0.49,0.517v-43.283c0-10.057,3.93-19.503,11.081-26.611l33.919-33.918V201.68z"/>
	</g>
</g>
<g>
	<g>
		<path d="M466,60c-4.142,0-7.5,3.358-7.5,7.5v54.18l-44.51,44.508c-0.169,0.168-0.323,0.347-0.49,0.517V7.5    c0-4.142-3.358-7.5-7.5-7.5c-4.142,0-7.5,3.358-7.5,7.5v159.205c-0.161-0.165-0.31-0.338-0.474-0.501L383.5,151.679V37.5    c0-4.142-3.358-7.5-7.5-7.5c-4.142,0-7.5,3.358-7.5,7.5v99.18l-15-15V67.5c0-4.142-3.358-7.5-7.5-7.5c-4.142,0-7.5,3.358-7.5,7.5    v278.65c0,14.082,5.501,27.305,15.474,37.218l44.526,44.525V504.5c0,4.142,3.358,7.5,7.5,7.5c4.142,0,7.5-3.358,7.5-7.5v-76.607    l44.51-44.509c9.989-9.93,15.49-23.153,15.49-37.234V67.5C473.5,63.358,470.142,60,466,60z M398.5,406.68l-33.935-33.934    c-7.135-7.093-11.065-16.538-11.065-26.596v-43.257l33.935,33.934c7.135,7.092,11.065,16.538,11.065,26.596V406.68z     M398.5,326.706c-0.161-0.165-0.31-0.338-0.474-0.501L353.5,281.68v-58.787l33.935,33.934    c7.135,7.092,11.065,16.538,11.065,26.596V326.706z M398.5,246.706c-0.161-0.165-0.31-0.338-0.474-0.501L353.5,201.68v-58.787    l33.935,33.934c7.135,7.092,11.065,16.538,11.065,26.596V246.706z M458.5,346.149c0,10.059-3.93,19.504-11.081,26.613    L413.5,406.68v-43.258c0-10.058,3.93-19.503,11.081-26.612l33.919-33.918V346.149z M458.5,281.68l-44.51,44.508    c-0.169,0.168-0.323,0.347-0.49,0.517v-43.283c0-10.058,3.93-19.503,11.081-26.612l33.919-33.918V281.68z M458.5,201.68    l-44.51,44.508c-0.169,0.168-0.323,0.347-0.49,0.517v-43.283c0-10.057,3.93-19.503,11.081-26.611l33.919-33.918V201.68z"/>
	</g>
</g>
<g>
</g>
<g>
</g>
<g>
</g>
<g>
</g>
<g>
</g>
<g>
</g>
<g>
</g>
<g>
</g>
<g>
</g>
<g>
</g>
<g>
</g>
<g>
</g>
<g>
</g>
<g>
</g>
<g>
</g>
</svg>
