<?xml version="1.0" encoding="iso-8859-1"?>
<!-- Generator: Adobe Illustrator 19.0.0, SVG Export Plug-In . SVG Version: 6.00 Build 0)  -->
<svg xmlns="http://www.w3.org/2000/svg" xmlns:xlink="http://www.w3.org/1999/xlink" version="1.1" id="Layer_1" x="0px" y="0px" viewBox="0 0 512 512" style="enable-background:new 0 0 512 512;" xml:space="preserve">
<g>
	<g>
		<path d="M504.5,0c-11.42,0-17.465,1.751-22.798,3.296C476.693,4.747,472.369,6,463.077,6c-9.291,0-13.616-1.253-18.625-2.704    C439.12,1.751,433.075,0,421.654,0c-11.419,0-17.463,1.751-22.795,3.296C393.852,4.747,389.527,6,380.237,6    c-9.29,0-13.615-1.253-18.623-2.704C356.282,1.751,350.238,0,338.818,0c-11.418,0-17.463,1.751-22.795,3.296    C311.016,4.747,306.692,6,297.402,6s-13.614-1.253-18.621-2.704C273.449,1.751,267.405,0,255.986,0    c-11.417,0-17.461,1.751-22.793,3.296C228.187,4.747,223.863,6,214.575,6c-9.289,0-13.613-1.253-18.62-2.704    C190.623,1.751,184.579,0,173.16,0c-11.419,0-17.463,1.751-22.796,3.296C145.357,4.747,141.033,6,131.743,6    c-9.29,0-13.614-1.253-18.621-2.704C107.79,1.751,101.746,0,90.327,0S72.865,1.751,67.533,3.296C62.526,4.747,58.202,6,48.913,6    S35.301,4.747,30.294,3.296C24.962,1.751,18.918,0,7.5,0C3.358,0,0,3.358,0,7.5v497c0,4.142,3.358,7.5,7.5,7.5    c11.42,0,17.465-1.751,22.798-3.296c5.008-1.451,9.333-2.704,18.625-2.704c9.291,0,13.616,1.253,18.625,2.704    C72.88,510.249,78.925,512,90.346,512c11.419,0,17.463-1.751,22.795-3.296c5.007-1.451,9.332-2.704,18.622-2.704    s13.615,1.253,18.623,2.704c5.333,1.545,11.377,3.296,22.796,3.296c11.418,0,17.463-1.751,22.795-3.296    c5.007-1.451,9.331-2.704,18.621-2.704c9.29,0,13.614,1.253,18.621,2.704c5.333,1.545,11.377,3.296,22.795,3.296    c11.417,0,17.461-1.751,22.793-3.296c5.006-1.451,9.33-2.704,18.618-2.704c9.289,0,13.613,1.253,18.62,2.704    c5.333,1.545,11.376,3.296,22.795,3.296s17.463-1.751,22.796-3.296c5.007-1.451,9.331-2.704,18.621-2.704    c9.29,0,13.614,1.253,18.621,2.704c5.333,1.545,11.377,3.296,22.795,3.296c11.418,0,17.462-1.751,22.794-3.296    c5.007-1.451,9.331-2.704,18.62-2.704s13.612,1.253,18.619,2.704c5.332,1.545,11.376,3.296,22.794,3.296    c4.142,0,7.5-3.358,7.5-7.5V7.5C512,3.358,508.642,0,504.5,0z M497,496.658c-4.591-0.47-7.695-1.369-11.119-2.361    c-5.333-1.545-11.376-3.296-22.794-3.296c-11.418,0-17.462,1.751-22.794,3.296c-5.007,1.451-9.331,2.704-18.62,2.704    c-9.29,0-13.614-1.253-18.621-2.704c-5.333-1.545-11.377-3.296-22.795-3.296c-11.418,0-17.462,1.751-22.795,3.296    c-5.007,1.451-9.332,2.704-18.621,2.704s-13.614-1.253-18.621-2.704c-5.333-1.545-11.376-3.296-22.795-3.296    c-11.417,0-17.461,1.751-22.793,3.296c-5.006,1.451-9.33,2.704-18.618,2.704c-9.29,0-13.614-1.253-18.621-2.704    c-5.333-1.545-11.377-3.296-22.795-3.296c-11.418,0-17.463,1.751-22.795,3.296c-5.007,1.451-9.331,2.704-18.621,2.704    c-9.29,0-13.615-1.253-18.623-2.704c-5.333-1.545-11.377-3.296-22.796-3.296s-17.463,1.751-22.796,3.296    c-5.007,1.45-9.332,2.703-18.621,2.703c-9.292,0-13.616-1.253-18.625-2.704C66.388,492.751,60.343,491,48.923,491    c-11.42,0-17.465,1.751-22.798,3.296c-3.425,0.992-6.531,1.892-11.125,2.361V15.342c4.591,0.47,7.695,1.369,11.119,2.361    C31.452,19.249,37.495,21,48.913,21c11.418,0,17.462-1.751,22.794-3.296C76.714,16.253,81.039,15,90.327,15    c9.29,0,13.614,1.253,18.621,2.704C114.28,19.249,120.325,21,131.743,21c11.418,0,17.462-1.751,22.795-3.296    C159.545,16.253,163.87,15,173.16,15c9.29,0,13.614,1.253,18.621,2.704C197.113,19.249,203.157,21,214.575,21    c11.417,0,17.461-1.751,22.793-3.296c5.006-1.451,9.33-2.704,18.618-2.704c9.29,0,13.614,1.253,18.621,2.704    C279.939,19.249,285.984,21,297.402,21c11.418,0,17.463-1.751,22.795-3.296c5.007-1.451,9.331-2.704,18.621-2.704    c9.29,0,13.615,1.253,18.623,2.704C362.773,19.249,368.818,21,380.237,21s17.463-1.751,22.796-3.296    C408.04,16.253,412.365,15,421.654,15c9.292,0,13.616,1.253,18.625,2.704C445.612,19.249,451.657,21,463.077,21    s17.465-1.751,22.798-3.296c3.425-0.992,6.531-1.892,11.125-2.361V496.658z"/>
	</g>
</g>
<g>
	<g>
		<path d="M90.327,31.7c-4.142,0-7.5,3.358-7.5,7.5v20c0,4.142,3.358,7.5,7.5,7.5c4.142,0,7.5-3.358,7.5-7.5v-20    C97.827,35.058,94.469,31.7,90.327,31.7z"/>
	</g>
</g>
<g>
	<g>
		<path d="M90.327,83.4c-4.142,0-7.5,3.358-7.5,7.5v20c0,4.142,3.358,7.5,7.5,7.5c4.142,0,7.5-3.358,7.5-7.5v-20    C97.827,86.758,94.469,83.4,90.327,83.4z"/>
	</g>
</g>
<g>
	<g>
		<path d="M90.327,135.1c-4.142,0-7.5,3.358-7.5,7.5v20c0,4.142,3.358,7.5,7.5,7.5c4.142,0,7.5-3.358,7.5-7.5v-20    C97.827,138.458,94.469,135.1,90.327,135.1z"/>
	</g>
</g>
<g>
	<g>
		<path d="M90.327,186.8c-4.142,0-7.5,3.358-7.5,7.5v20c0,4.142,3.358,7.5,7.5,7.5c4.142,0,7.5-3.358,7.5-7.5v-20    C97.827,190.158,94.469,186.8,90.327,186.8z"/>
	</g>
</g>
<g>
	<g>
		<path d="M90.327,238.5c-4.142,0-7.5,3.358-7.5,7.5v20c0,4.142,3.358,7.5,7.5,7.5c4.142,0,7.5-3.358,7.5-7.5v-20    C97.827,241.858,94.469,238.5,90.327,238.5z"/>
	</g>
</g>
<g>
	<g>
		<path d="M90.327,290.2c-4.142,0-7.5,3.358-7.5,7.5v20c0,4.142,3.358,7.5,7.5,7.5c4.142,0,7.5-3.358,7.5-7.5v-20    C97.827,293.558,94.469,290.2,90.327,290.2z"/>
	</g>
</g>
<g>
	<g>
		<path d="M90.327,341.9c-4.142,0-7.5,3.358-7.5,7.5v20c0,4.142,3.358,7.5,7.5,7.5c4.142,0,7.5-3.358,7.5-7.5v-20    C97.827,345.258,94.469,341.9,90.327,341.9z"/>
	</g>
</g>
<g>
	<g>
		<path d="M90.327,393.6c-4.142,0-7.5,3.358-7.5,7.5v20c0,4.142,3.358,7.5,7.5,7.5c4.142,0,7.5-3.358,7.5-7.5v-20    C97.827,396.958,94.469,393.6,90.327,393.6z"/>
	</g>
</g>
<g>
	<g>
		<path d="M90.346,445.3c-4.142,0-7.5,3.358-7.5,7.5v20c0,4.142,3.358,7.5,7.5,7.5c4.142,0,7.5-3.358,7.5-7.5v-20    C97.846,448.658,94.488,445.3,90.346,445.3z"/>
	</g>
</g>
<g>
	<g>
		<path d="M173.141,31.7c-4.142,0-7.5,3.358-7.5,7.5v20c0,4.142,3.358,7.5,7.5,7.5c4.142,0,7.5-3.358,7.5-7.5v-20    C180.641,35.058,177.283,31.7,173.141,31.7z"/>
	</g>
</g>
<g>
	<g>
		<path d="M173.141,83.4c-4.142,0-7.5,3.358-7.5,7.5v20c0,4.142,3.358,7.5,7.5,7.5c4.142,0,7.5-3.358,7.5-7.5v-20    C180.641,86.758,177.283,83.4,173.141,83.4z"/>
	</g>
</g>
<g>
	<g>
		<path d="M173.141,135.1c-4.142,0-7.5,3.358-7.5,7.5v20c0,4.142,3.358,7.5,7.5,7.5c4.142,0,7.5-3.358,7.5-7.5v-20    C180.641,138.458,177.283,135.1,173.141,135.1z"/>
	</g>
</g>
<g>
	<g>
		<path d="M173.141,186.8c-4.142,0-7.5,3.358-7.5,7.5v20c0,4.142,3.358,7.5,7.5,7.5c4.142,0,7.5-3.358,7.5-7.5v-20    C180.641,190.158,177.283,186.8,173.141,186.8z"/>
	</g>
</g>
<g>
	<g>
		<path d="M173.141,238.5c-4.142,0-7.5,3.358-7.5,7.5v20c0,4.142,3.358,7.5,7.5,7.5c4.142,0,7.5-3.358,7.5-7.5v-20    C180.641,241.858,177.283,238.5,173.141,238.5z"/>
	</g>
</g>
<g>
	<g>
		<path d="M173.141,290.2c-4.142,0-7.5,3.358-7.5,7.5v20c0,4.142,3.358,7.5,7.5,7.5c4.142,0,7.5-3.358,7.5-7.5v-20    C180.641,293.558,177.283,290.2,173.141,290.2z"/>
	</g>
</g>
<g>
	<g>
		<path d="M173.141,341.9c-4.142,0-7.5,3.358-7.5,7.5v20c0,4.142,3.358,7.5,7.5,7.5c4.142,0,7.5-3.358,7.5-7.5v-20    C180.641,345.258,177.283,341.9,173.141,341.9z"/>
	</g>
</g>
<g>
	<g>
		<path d="M173.141,393.6c-4.142,0-7.5,3.358-7.5,7.5v20c0,4.142,3.358,7.5,7.5,7.5c4.142,0,7.5-3.358,7.5-7.5v-20    C180.641,396.958,177.283,393.6,173.141,393.6z"/>
	</g>
</g>
<g>
	<g>
		<path d="M173.16,445.3c-4.142,0-7.5,3.358-7.5,7.5v20c0,4.142,3.358,7.5,7.5,7.5c4.142,0,7.5-3.358,7.5-7.5v-20    C180.66,448.658,177.302,445.3,173.16,445.3z"/>
	</g>
</g>
<g>
	<g>
		<path d="M255.968,31.7c-4.142,0-7.5,3.358-7.5,7.5v20c0,4.142,3.358,7.5,7.5,7.5s7.5-3.358,7.5-7.5v-20    C263.468,35.058,260.11,31.7,255.968,31.7z"/>
	</g>
</g>
<g>
	<g>
		<path d="M255.968,83.4c-4.142,0-7.5,3.358-7.5,7.5v20c0,4.142,3.358,7.5,7.5,7.5s7.5-3.358,7.5-7.5v-20    C263.468,86.758,260.11,83.4,255.968,83.4z"/>
	</g>
</g>
<g>
	<g>
		<path d="M255.968,135.1c-4.142,0-7.5,3.358-7.5,7.5v20c0,4.142,3.358,7.5,7.5,7.5s7.5-3.358,7.5-7.5v-20    C263.468,138.458,260.11,135.1,255.968,135.1z"/>
	</g>
</g>
<g>
	<g>
		<path d="M255.968,186.8c-4.142,0-7.5,3.358-7.5,7.5v20c0,4.142,3.358,7.5,7.5,7.5s7.5-3.358,7.5-7.5v-20    C263.468,190.158,260.11,186.8,255.968,186.8z"/>
	</g>
</g>
<g>
	<g>
		<path d="M255.968,238.5c-4.142,0-7.5,3.358-7.5,7.5v20c0,4.142,3.358,7.5,7.5,7.5s7.5-3.358,7.5-7.5v-20    C263.468,241.858,260.11,238.5,255.968,238.5z"/>
	</g>
</g>
<g>
	<g>
		<path d="M255.968,290.2c-4.142,0-7.5,3.358-7.5,7.5v20c0,4.142,3.358,7.5,7.5,7.5s7.5-3.358,7.5-7.5v-20    C263.468,293.558,260.11,290.2,255.968,290.2z"/>
	</g>
</g>
<g>
	<g>
		<path d="M255.968,341.9c-4.142,0-7.5,3.358-7.5,7.5v20c0,4.142,3.358,7.5,7.5,7.5s7.5-3.358,7.5-7.5v-20    C263.468,345.258,260.11,341.9,255.968,341.9z"/>
	</g>
</g>
<g>
	<g>
		<path d="M255.968,393.6c-4.142,0-7.5,3.358-7.5,7.5v20c0,4.142,3.358,7.5,7.5,7.5s7.5-3.358,7.5-7.5v-20    C263.468,396.958,260.11,393.6,255.968,393.6z"/>
	</g>
</g>
<g>
	<g>
		<path d="M255.986,445.3c-4.142,0-7.5,3.358-7.5,7.5v20c0,4.142,3.358,7.5,7.5,7.5c4.142,0,7.5-3.358,7.5-7.5v-20    C263.486,448.658,260.128,445.3,255.986,445.3z"/>
	</g>
</g>
<g>
	<g>
		<path d="M338.8,31.7c-4.142,0-7.5,3.358-7.5,7.5v20c0,4.142,3.358,7.5,7.5,7.5c4.142,0,7.5-3.358,7.5-7.5v-20    C346.3,35.058,342.942,31.7,338.8,31.7z"/>
	</g>
</g>
<g>
	<g>
		<path d="M338.8,83.4c-4.142,0-7.5,3.358-7.5,7.5v20c0,4.142,3.358,7.5,7.5,7.5c4.142,0,7.5-3.358,7.5-7.5v-20    C346.3,86.758,342.942,83.4,338.8,83.4z"/>
	</g>
</g>
<g>
	<g>
		<path d="M338.8,135.1c-4.142,0-7.5,3.358-7.5,7.5v20c0,4.142,3.358,7.5,7.5,7.5c4.142,0,7.5-3.358,7.5-7.5v-20    C346.3,138.458,342.942,135.1,338.8,135.1z"/>
	</g>
</g>
<g>
	<g>
		<path d="M338.8,186.8c-4.142,0-7.5,3.358-7.5,7.5v20c0,4.142,3.358,7.5,7.5,7.5c4.142,0,7.5-3.358,7.5-7.5v-20    C346.3,190.158,342.942,186.8,338.8,186.8z"/>
	</g>
</g>
<g>
	<g>
		<path d="M338.8,238.5c-4.142,0-7.5,3.358-7.5,7.5v20c0,4.142,3.358,7.5,7.5,7.5c4.142,0,7.5-3.358,7.5-7.5v-20    C346.3,241.858,342.942,238.5,338.8,238.5z"/>
	</g>
</g>
<g>
	<g>
		<path d="M338.8,290.2c-4.142,0-7.5,3.358-7.5,7.5v20c0,4.142,3.358,7.5,7.5,7.5c4.142,0,7.5-3.358,7.5-7.5v-20    C346.3,293.558,342.942,290.2,338.8,290.2z"/>
	</g>
</g>
<g>
	<g>
		<path d="M338.8,341.9c-4.142,0-7.5,3.358-7.5,7.5v20c0,4.142,3.358,7.5,7.5,7.5c4.142,0,7.5-3.358,7.5-7.5v-20    C346.3,345.258,342.942,341.9,338.8,341.9z"/>
	</g>
</g>
<g>
	<g>
		<path d="M338.8,393.6c-4.142,0-7.5,3.358-7.5,7.5v20c0,4.142,3.358,7.5,7.5,7.5c4.142,0,7.5-3.358,7.5-7.5v-20    C346.3,396.958,342.942,393.6,338.8,393.6z"/>
	</g>
</g>
<g>
	<g>
		<path d="M338.818,445.3c-4.142,0-7.5,3.358-7.5,7.5v20c0,4.142,3.358,7.5,7.5,7.5c4.142,0,7.5-3.358,7.5-7.5v-20    C346.318,448.658,342.96,445.3,338.818,445.3z"/>
	</g>
</g>
<g>
	<g>
		<path d="M421.636,31.7c-4.142,0-7.5,3.358-7.5,7.5v20c0,4.142,3.358,7.5,7.5,7.5c4.142,0,7.5-3.358,7.5-7.5v-20    C429.136,35.058,425.778,31.7,421.636,31.7z"/>
	</g>
</g>
<g>
	<g>
		<path d="M421.636,83.4c-4.142,0-7.5,3.358-7.5,7.5v20c0,4.142,3.358,7.5,7.5,7.5c4.142,0,7.5-3.358,7.5-7.5v-20    C429.136,86.758,425.778,83.4,421.636,83.4z"/>
	</g>
</g>
<g>
	<g>
		<path d="M421.636,135.1c-4.142,0-7.5,3.358-7.5,7.5v20c0,4.142,3.358,7.5,7.5,7.5c4.142,0,7.5-3.358,7.5-7.5v-20    C429.136,138.458,425.778,135.1,421.636,135.1z"/>
	</g>
</g>
<g>
	<g>
		<path d="M421.636,186.8c-4.142,0-7.5,3.358-7.5,7.5v20c0,4.142,3.358,7.5,7.5,7.5c4.142,0,7.5-3.358,7.5-7.5v-20    C429.136,190.158,425.778,186.8,421.636,186.8z"/>
	</g>
</g>
<g>
	<g>
		<path d="M421.636,238.5c-4.142,0-7.5,3.358-7.5,7.5v20c0,4.142,3.358,7.5,7.5,7.5c4.142,0,7.5-3.358,7.5-7.5v-20    C429.136,241.858,425.778,238.5,421.636,238.5z"/>
	</g>
</g>
<g>
	<g>
		<path d="M421.636,290.2c-4.142,0-7.5,3.358-7.5,7.5v20c0,4.142,3.358,7.5,7.5,7.5c4.142,0,7.5-3.358,7.5-7.5v-20    C429.136,293.558,425.778,290.2,421.636,290.2z"/>
	</g>
</g>
<g>
	<g>
		<path d="M421.636,341.9c-4.142,0-7.5,3.358-7.5,7.5v20c0,4.142,3.358,7.5,7.5,7.5c4.142,0,7.5-3.358,7.5-7.5v-20    C429.136,345.258,425.778,341.9,421.636,341.9z"/>
	</g>
</g>
<g>
	<g>
		<path d="M421.636,393.6c-4.142,0-7.5,3.358-7.5,7.5v20c0,4.142,3.358,7.5,7.5,7.5c4.142,0,7.5-3.358,7.5-7.5v-20    C429.136,396.958,425.778,393.6,421.636,393.6z"/>
	</g>
</g>
<g>
	<g>
		<path d="M421.654,445.3c-4.142,0-7.5,3.358-7.5,7.5v20c0,4.142,3.358,7.5,7.5,7.5c4.142,0,7.5-3.358,7.5-7.5v-20    C429.154,448.658,425.796,445.3,421.654,445.3z"/>
	</g>
</g>
<g>
</g>
<g>
</g>
<g>
</g>
<g>
</g>
<g>
</g>
<g>
</g>
<g>
</g>
<g>
</g>
<g>
</g>
<g>
</g>
<g>
</g>
<g>
</g>
<g>
</g>
<g>
</g>
<g>
</g>
</svg>
