<?xml version="1.0" encoding="iso-8859-1"?>
<!-- Generator: Adobe Illustrator 19.0.0, SVG Export Plug-In . SVG Version: 6.00 Build 0)  -->
<svg xmlns="http://www.w3.org/2000/svg" xmlns:xlink="http://www.w3.org/1999/xlink" version="1.1" id="Layer_1" x="0px" y="0px" viewBox="0 0 512 512" style="enable-background:new 0 0 512 512;" xml:space="preserve">
<g>
	<g>
		<path d="M351,88.5c-4.143,0-7.5,3.358-7.5,7.5v2.5h-15V96c0-4.142-3.357-7.5-7.5-7.5h-50c-4.143,0-7.5,3.358-7.5,7.5v2.5h-15V96    c0-4.142-3.357-7.5-7.5-7.5h-50c-4.143,0-7.5,3.358-7.5,7.5v2.5h-15V96c0-4.142-3.357-7.5-7.5-7.5c-88.775,0-161,72.224-161,161    V356c0,37.22,30.28,67.5,67.5,67.5h377c37.22,0,67.5-30.28,67.5-67.5V249.5C512,160.724,439.775,88.5,351,88.5z M328.5,113.5h15    v91c0,4.136-3.364,7.5-7.5,7.5s-7.5-3.364-7.5-7.5V113.5z M248.5,113.5h15v91c0,4.136-3.364,7.5-7.5,7.5s-7.5-3.364-7.5-7.5V113.5    z M497,356c0,28.949-23.552,52.5-52.5,52.5h-377C38.552,408.5,15,384.949,15,356V249.5c0-77.989,61.468-141.892,138.5-145.81    V204.5c0,12.407,10.094,22.5,22.5,22.5s22.5-10.093,22.5-22.5v-37.327c0-4.142-3.357-7.5-7.5-7.5s-7.5,3.358-7.5,7.5V204.5    c0,4.136-3.364,7.5-7.5,7.5s-7.5-3.364-7.5-7.5v-91h15v23.673c0,4.142,3.357,7.5,7.5,7.5s7.5-3.358,7.5-7.5V103.5h35v101    c0,12.407,10.094,22.5,22.5,22.5s22.5-10.093,22.5-22.5v-101h35v101c0,12.407,10.094,22.5,22.5,22.5s22.5-10.093,22.5-22.5V103.69    C435.532,107.608,497,171.511,497,249.5V356z"/>
	</g>
</g>
<g>
	<g>
		<path d="M444.5,368.5h-317c-4.143,0-7.5,3.358-7.5,7.5c0,4.142,3.357,7.5,7.5,7.5h317c4.143,0,7.5-3.358,7.5-7.5    C452,371.858,448.643,368.5,444.5,368.5z"/>
	</g>
</g>
<g>
	<g>
		<path d="M97.5,368.5h-30c-4.143,0-7.5,3.358-7.5,7.5c0,4.142,3.357,7.5,7.5,7.5h30c4.143,0,7.5-3.358,7.5-7.5    C105,371.858,101.643,368.5,97.5,368.5z"/>
	</g>
</g>
<g>
	<g>
		<circle cx="414.5" cy="326" r="7.5"/>
	</g>
</g>
<g>
	<g>
		<circle cx="67.5" cy="326" r="7.5"/>
	</g>
</g>
<g>
	<g>
		<circle cx="176" cy="259.5" r="7.5"/>
	</g>
</g>
<g>
	<g>
		<circle cx="121.75" cy="204.5" r="7.5"/>
	</g>
</g>
<g>
	<g>
		<circle cx="444.5" cy="296" r="7.5"/>
	</g>
</g>
<g>
</g>
<g>
</g>
<g>
</g>
<g>
</g>
<g>
</g>
<g>
</g>
<g>
</g>
<g>
</g>
<g>
</g>
<g>
</g>
<g>
</g>
<g>
</g>
<g>
</g>
<g>
</g>
<g>
</g>
</svg>
