<?xml version="1.0" encoding="iso-8859-1"?>
<!-- Generator: Adobe Illustrator 19.0.0, SVG Export Plug-In . SVG Version: 6.00 Build 0)  -->
<svg xmlns="http://www.w3.org/2000/svg" xmlns:xlink="http://www.w3.org/1999/xlink" version="1.1" id="Layer_1" x="0px" y="0px" viewBox="0 0 512 512" style="enable-background:new 0 0 512 512;" xml:space="preserve">
<g>
	<g>
		<path d="M225.593,340.119l-89.073-89.073c-5.86-5.86-13.651-9.088-21.939-9.088c-5.74,0-11.24,1.551-16.027,4.449V140.155    c0-5.491-1.44-10.649-3.952-15.128c1.673-0.58,3.44-0.899,5.254-0.899c8.838,0,16.027,7.19,16.027,16.027v77.706    c0,4.142,3.357,7.5,7.5,7.5c4.143,0,7.5-3.358,7.5-7.5v-77.706c0-17.108-13.919-31.027-31.027-31.027    c-5.776,0-11.341,1.592-16.172,4.55c-4.709-2.884-10.241-4.55-16.156-4.55c-17.108,0-31.027,13.919-31.027,31.034l0.131,148.328    c0.006,6.685,2.48,16.118,5.756,21.942c0.05,0.089,0.102,0.177,0.156,0.264l93.106,150.775c1.974,3.591,3.755,10.439,3.755,14.477    V504.5c0,4.142,3.357,7.5,7.5,7.5s7.5-3.358,7.5-7.5v-28.552c0-6.687-2.471-16.123-5.747-21.949    c-0.05-0.089-0.102-0.177-0.155-0.264L55.395,302.96c-1.975-3.593-3.76-10.444-3.764-14.483L51.5,140.156    c0-8.837,7.189-16.027,16.027-16.027c8.837,0,16.026,7.19,16.026,16.027v132.831c0,8.288,3.228,16.08,9.088,21.939l72.391,72.391    c2.929,2.929,7.677,2.93,10.607,0c2.929-2.929,2.929-7.678,0-10.606l-72.392-72.391c-3.027-3.027-4.694-7.052-4.694-11.333    s1.667-8.306,4.695-11.333c3.026-3.027,7.051-4.694,11.332-4.694s8.306,1.667,11.333,4.694l89.072,89.072    c10.035,10.035,18.513,30.502,18.513,44.694V504.5c0,4.142,3.357,7.5,7.5,7.5s7.5-3.358,7.5-7.5V395.419    C248.498,377.254,238.436,352.963,225.593,340.119z"/>
	</g>
</g>
<g>
	<g>
		<path d="M444.471,109.128c-5.915,0-11.448,1.666-16.156,4.55c-4.83-2.958-10.396-4.55-16.172-4.55    c-17.108,0-31.027,13.919-31.027,31.027v77.706c0,4.142,3.357,7.5,7.5,7.5s7.5-3.358,7.5-7.5v-77.706    c0-8.837,7.189-16.027,16.027-16.027c1.813,0,3.581,0.319,5.254,0.899c-2.513,4.479-3.952,9.637-3.952,15.128v106.253    c-4.787-2.899-10.288-4.449-16.027-4.449c-8.288,0-16.079,3.228-21.94,9.088l-89.072,89.072    c-12.844,12.845-22.905,37.136-22.905,55.3V504.5c0,4.142,3.357,7.5,7.5,7.5s7.5-3.358,7.5-7.5V395.419    c0-14.191,8.478-34.659,18.513-44.694l89.071-89.072c3.028-3.027,7.053-4.694,11.334-4.694c4.281,0,8.306,1.667,11.333,4.694    c3.027,3.027,4.694,7.052,4.694,11.333s-1.667,8.306-4.695,11.333L336.36,356.71c-2.929,2.929-2.929,7.678,0,10.606    c2.93,2.929,7.678,2.929,10.607,0l72.39-72.391c5.861-5.86,9.089-13.652,9.089-21.939V140.155c0-8.837,7.189-16.027,16.026-16.027    c8.838,0,16.027,7.19,16.027,16.021l-0.131,148.328c-0.004,4.039-1.789,10.891-3.764,14.483l-93.107,150.775    c-0.054,0.087-0.105,0.175-0.155,0.264c-3.276,5.826-5.747,15.262-5.747,21.949V504.5c0,4.142,3.357,7.5,7.5,7.5    s7.5-3.358,7.5-7.5v-28.552c0-4.037,1.781-10.886,3.755-14.477l93.106-150.775c0.055-0.087,0.106-0.175,0.156-0.264    c3.275-5.824,5.75-15.257,5.756-21.942l0.131-148.335C475.498,123.047,461.579,109.128,444.471,109.128z"/>
	</g>
</g>
<g>
	<g>
		<path d="M255.999,0c-59.275,0-107.5,48.224-107.5,107.5S196.724,215,255.999,215c59.275,0,107.5-48.224,107.5-107.5    S315.274,0,255.999,0z M255.999,200c-51.005,0-92.5-41.495-92.5-92.5s41.495-92.5,92.5-92.5s92.5,41.495,92.5,92.5    S307.004,200,255.999,200z"/>
	</g>
</g>
<g>
	<g>
		<path d="M255.999,130c-4.143,0-7.5,3.358-7.5,7.5v16.278c0,4.142,3.357,7.5,7.5,7.5s7.5-3.358,7.5-7.5V137.5    C263.499,133.358,260.142,130,255.999,130z"/>
	</g>
</g>
<g>
	<g>
		<path d="M302.276,100h-38.777V61.222c0-4.142-3.357-7.5-7.5-7.5s-7.5,3.358-7.5,7.5V100h-38.777c-4.143,0-7.5,3.358-7.5,7.5    c0,4.142,3.357,7.5,7.5,7.5h92.555c4.143,0,7.5-3.358,7.5-7.5C309.777,103.358,306.419,100,302.276,100z"/>
	</g>
</g>
<g>
</g>
<g>
</g>
<g>
</g>
<g>
</g>
<g>
</g>
<g>
</g>
<g>
</g>
<g>
</g>
<g>
</g>
<g>
</g>
<g>
</g>
<g>
</g>
<g>
</g>
<g>
</g>
<g>
</g>
</svg>
