<?xml version="1.0" encoding="iso-8859-1"?>
<!-- Generator: Adobe Illustrator 19.0.0, SVG Export Plug-In . SVG Version: 6.00 Build 0)  -->
<svg xmlns="http://www.w3.org/2000/svg" xmlns:xlink="http://www.w3.org/1999/xlink" version="1.1" id="Layer_1" x="0px" y="0px" viewBox="0 0 512 512" style="enable-background:new 0 0 512 512;" xml:space="preserve">
<g>
	<g>
		<path d="M437.02,74.98C388.668,26.629,324.38,0,256,0S123.333,26.629,74.98,74.98C26.629,123.333,0,187.62,0,256    s26.629,132.667,74.98,181.02C123.333,485.371,187.62,512,256,512s132.668-26.629,181.02-74.98    C485.371,388.667,512,324.38,512,256S485.371,123.333,437.02,74.98z M256,497C123.112,497,15,388.888,15,256S123.112,15,256,15    s241,108.112,241,241S388.888,497,256,497z"/>
	</g>
</g>
<g>
	<g>
		<circle cx="431" cy="211" r="7.5"/>
	</g>
</g>
<g>
	<g>
		<circle cx="401" cy="181" r="7.5"/>
	</g>
</g>
<g>
	<g>
		<circle cx="146" cy="191" r="7.5"/>
	</g>
</g>
<g>
	<g>
		<circle cx="116" cy="131" r="7.5"/>
	</g>
</g>
<g>
	<g>
		<circle cx="146" cy="101" r="7.5"/>
	</g>
</g>
<g>
	<g>
		<circle cx="146" cy="411" r="7.5"/>
	</g>
</g>
<g>
	<g>
		<path d="M256,278.5c-4.142,0-7.5,3.358-7.5,7.5v85c0,4.142,3.358,7.5,7.5,7.5c4.143,0,7.5-3.358,7.5-7.5v-85    C263.5,281.857,260.143,278.5,256,278.5z"/>
	</g>
</g>
<g>
	<g>
		<path d="M371,248.5H263.5V141c0-4.142-3.357-7.5-7.5-7.5c-4.142,0-7.5,3.358-7.5,7.5v107.5H141c-4.142,0-7.5,3.358-7.5,7.5    c0,4.142,3.358,7.5,7.5,7.5h230c4.143,0,7.5-3.358,7.5-7.5C378.5,251.858,375.143,248.5,371,248.5z"/>
	</g>
</g>
<g>
</g>
<g>
</g>
<g>
</g>
<g>
</g>
<g>
</g>
<g>
</g>
<g>
</g>
<g>
</g>
<g>
</g>
<g>
</g>
<g>
</g>
<g>
</g>
<g>
</g>
<g>
</g>
<g>
</g>
</svg>
