<?xml version="1.0" encoding="iso-8859-1"?>
<!-- Generator: Adobe Illustrator 19.0.0, SVG Export Plug-In . SVG Version: 6.00 Build 0)  -->
<svg xmlns="http://www.w3.org/2000/svg" xmlns:xlink="http://www.w3.org/1999/xlink" version="1.1" id="Layer_1" x="0px" y="0px" viewBox="0 0 512 512" style="enable-background:new 0 0 512 512;" xml:space="preserve">
<g>
	<g>
		<path d="M391,497h-3.098c-3.607-22.64-23.263-40-46.902-40h-18.954c-16.125-10.419-26.346-27.239-28.228-46.138    c11.366-3.377,19.682-13.914,19.682-26.362c0-4.967-1.324-9.727-3.744-13.863c47.53-21.079,78.744-68.428,78.744-121.137V207h2.5    c4.142,0,7.5-3.358,7.5-7.5c0-4.142-3.358-7.5-7.5-7.5h-3.098c-2.537-15.934-13.044-29.674-28.205-36.172l-3.315-1.421    C353.889,136.129,338.177,122,319.226,122H278.5V81h21v2.5c0,4.142,3.358,7.5,7.5,7.5c4.142,0,7.5-3.358,7.5-7.5v-50    c0-4.142-3.358-7.5-7.5-7.5c-4.142,0-7.5,3.358-7.5,7.5V36h-21V15h2.5c4.142,0,7.5-3.358,7.5-7.5S285.142,0,281,0h-50    c-4.142,0-7.5,3.358-7.5,7.5s3.358,7.5,7.5,7.5h2.5v21h-21v-2.5c0-4.142-3.358-7.5-7.5-7.5c-4.142,0-7.5,3.358-7.5,7.5v50    c0,4.142,3.358,7.5,7.5,7.5c4.142,0,7.5-3.358,7.5-7.5V81h21v41h-40.726c-18.951,0-34.664,14.129-37.155,32.407l-3.315,1.421    c-15.162,6.498-25.669,20.239-28.205,36.172H121c-4.142,0-7.5,3.358-7.5,7.5c0,4.142,3.358,7.5,7.5,7.5h2.5v42.5    c0,52.709,31.214,100.058,78.744,121.137c-2.42,4.136-3.744,8.896-3.744,13.863c0,12.448,8.316,22.985,19.682,26.362    c-1.881,18.899-12.103,35.72-28.228,46.138H171c-23.639,0-43.295,17.36-46.902,40H121c-4.142,0-7.5,3.358-7.5,7.5    c0,4.142,3.358,7.5,7.5,7.5h270c4.142,0,7.5-3.358,7.5-7.5C398.5,500.358,395.142,497,391,497z M212.5,66V51H241    c4.142,0,7.5-3.358,7.5-7.5V15h15v28.5c0,4.142,3.358,7.5,7.5,7.5h28.5v15H271c-4.142,0-7.5,3.358-7.5,7.5V122h-15V73.5    c0-4.142-3.358-7.5-7.5-7.5H212.5z M158.213,169.615l7.516-3.221c2.757-1.182,4.545-3.894,4.545-6.894    c0-12.407,10.093-22.5,22.5-22.5h126.451c12.407,0,22.5,10.093,22.5,22.5c0,3,1.788,5.712,4.545,6.894l7.516,3.221    c9.617,4.121,16.49,12.502,18.829,22.385H139.384C141.723,182.116,148.596,173.736,158.213,169.615z M213.5,384.5    c0-4.26,2.153-8.189,5.76-10.51c2.415-1.554,3.73-4.352,3.388-7.203c-0.343-2.852-2.284-5.257-4.999-6.194    C170.307,344.253,138.5,299.608,138.5,249.5V207h235v42.5c0,50.108-31.807,94.753-79.148,111.094    c-2.715,0.937-4.656,3.342-4.999,6.194c-0.343,2.851,0.973,5.648,3.388,7.203c3.606,2.321,5.76,6.25,5.76,10.51    c0,6.893-5.607,12.5-12.5,12.5h-60C219.107,397,213.5,391.393,213.5,384.5z M233.145,412h45.71    c1.61,17.026,8.681,32.707,20.047,45h-85.805C224.464,444.707,231.535,429.026,233.145,412z M139.383,497    c3.396-14.315,16.278-25,31.617-25h21.06c0.09,0,127.79,0,127.79,0c0.09,0,21.15,0,21.15,0c15.339,0,28.221,10.685,31.617,25    H139.383z"/>
	</g>
</g>
<g>
	<g>
		<path d="M266.799,360.183h-21.598c-4.142,0-7.5,3.358-7.5,7.5c0,4.142,3.358,7.5,7.5,7.5h21.598c4.142,0,7.5-3.358,7.5-7.5    C274.299,363.541,270.941,360.183,266.799,360.183z"/>
	</g>
</g>
<g>
	<g>
		<circle cx="351" cy="229.5" r="7.5"/>
	</g>
</g>
<g>
	<g>
		<circle cx="321" cy="259.5" r="7.5"/>
	</g>
</g>
<g>
	<g>
		<path d="M319.226,152H192.774c-4.142,0-7.5,3.358-7.5,7.5c0,4.142,3.358,7.5,7.5,7.5h126.451c4.142,0,7.5-3.358,7.5-7.5    C326.725,155.358,323.368,152,319.226,152z"/>
	</g>
</g>
<g>
</g>
<g>
</g>
<g>
</g>
<g>
</g>
<g>
</g>
<g>
</g>
<g>
</g>
<g>
</g>
<g>
</g>
<g>
</g>
<g>
</g>
<g>
</g>
<g>
</g>
<g>
</g>
<g>
</g>
</svg>
